<svg version="1.1" xmlns="http://www.w3.org/2000/svg" xmlns:xlink="http://www.w3.org/1999/xlink" x="0px" y="0px" viewBox="0 0 197.2 41.1" style="enable-background:new 0 0 197.2 41.1;" xml:space="preserve"><g><path class="p-st__loadingLogo--front" d="M0.252,24.136a11.81,11.81,0,0,1,2.208-.32,6.463,6.463,0,0,1,1.056.1,18.917,18.917,0,0,0,4.288.544,7.627,7.627,0,0,0,5.216-1.76,5.36,5.36,0,0,0,1.824-4.352,6.069,6.069,0,0,0-.9-3.52c-0.9-1.408-2.4-2.464-6.4-4.352C3.74,8.681,2.716,7.625,2.716,5.513a4.55,4.55,0,0,1,.928-2.784A4.163,4.163,0,0,1,7.036,1.386a5.1,5.1,0,0,1,4.608,2.272,7.288,7.288,0,0,1,.9,3.36H13.6l0.192-6.3a5.876,5.876,0,0,1-1.92.48,6.393,6.393,0,0,1-1.184-.16A13.125,13.125,0,0,0,6.908.49,6.553,6.553,0,0,0,2.332,2.026,5.978,5.978,0,0,0,.316,6.665a5.3,5.3,0,0,0,1.408,3.776c0.9,0.96,1.888,1.568,4.608,2.88,4.768,2.3,5.952,3.52,5.952,6.048,0,2.624-1.728,4.16-4.64,4.16a6.125,6.125,0,0,1-4.8-1.824,6.115,6.115,0,0,1-1.312-4.032H0.476Zm34.238-.064v-0.7H34.267c-1.664,0-1.952-.576-1.952-3.776V13.545c0-1.44.064-3.552,0.16-5.952l-4.96.32v0.7h0.576a1.616,1.616,0,0,1,1.088.32c0.384,0.288.48,0.9,0.48,2.592v4.928a7.894,7.894,0,0,1-.576,3.776,4.621,4.621,0,0,1-4.16,3.1,2.485,2.485,0,0,1-2.592-1.792c-0.384-1.12-.448-1.984-0.448-5.216V13.545c0-2.208.032-2.976,0.192-5.952l-4.96.32v0.7h0.576a1.578,1.578,0,0,1,1.088.288c0.352,0.288.48,0.96,0.48,2.624v5.28a15.58,15.58,0,0,0,.448,4.96,4.268,4.268,0,0,0,4.256,2.688A6.516,6.516,0,0,0,29.659,21a26.094,26.094,0,0,0,.16,3.3ZM41.307,7.561l-4.8.352v0.7c1.856,0,2.208.48,2.208,2.88v8.575c0,3.008-.16,3.232-2.336,3.3v0.7h7.264v-0.7c-2.144-.064-2.3-0.288-2.3-3.3V13.929a5.278,5.278,0,0,1,1.12-3.456,3.935,3.935,0,0,1,3.2-1.824c1.92,0,2.88,1.536,2.88,4.64v6.783c0,2.976-.16,3.232-2.3,3.3v0.7H53.5v-0.7c-2.176-.064-2.336-0.32-2.336-3.3V14.409a6.078,6.078,0,0,1,1.216-3.872,3.6,3.6,0,0,1,2.976-1.888,2.408,2.408,0,0,1,2.432,1.184c0.48,0.832.608,1.728,0.608,3.872v6.367c0,2.976-.16,3.232-2.336,3.3v0.7h7.3v-0.7c-2.176-.064-2.336-0.32-2.336-3.3V13.161c0-2.176-.288-3.328-0.992-4.224A4.514,4.514,0,0,0,56.41,7.465c-2.464,0-4.128,1.12-5.472,3.712a4.072,4.072,0,0,0-4.32-3.712,5.756,5.756,0,0,0-5.312,3.456V7.561ZM82.234,24.072v-0.7H82.01c-1.664,0-1.952-.576-1.952-3.776V13.545c0-1.44.064-3.552,0.16-5.952l-4.96.32v0.7h0.576a1.616,1.616,0,0,1,1.088.32c0.384,0.288.48,0.9,0.48,2.592v4.928a7.893,7.893,0,0,1-.576,3.776,4.621,4.621,0,0,1-4.16,3.1,2.485,2.485,0,0,1-2.592-1.792c-0.384-1.12-.448-1.984-0.448-5.216V13.545c0-2.208.032-2.976,0.192-5.952l-4.96.32v0.7h0.576a1.578,1.578,0,0,1,1.088.288c0.352,0.288.48,0.96,0.48,2.624v5.28a15.576,15.576,0,0,0,.448,4.96,4.268,4.268,0,0,0,4.256,2.688A6.516,6.516,0,0,0,77.4,21a26.094,26.094,0,0,0,.16,3.3Zm6.593-5.6,2.5-2.784L94.586,21c0.32,0.576,1.344,2.4,1.664,3.072H100.6v-0.7c-1.407-.224-1.951-0.64-3.039-2.368l-4.48-7.039,1.664-1.792c1.92-2.08,2.048-2.176,3.136-2.848a4.6,4.6,0,0,1,2.143-.7v-0.7H92.954v0.7C94.362,8.681,94.97,9,94.97,9.673a3.517,3.517,0,0,1-1.12,1.984l-5.024,5.5V7.017c0-1.664.064-4.256,0.192-6.4l-5.024.256v0.7c2.144,0.032,2.272.192,2.272,2.912V20.072c0,2.976-.16,3.232-2.272,3.3v0.7H91.13v-0.7c-2.144-.064-2.3-0.32-2.3-3.3v-1.6Zm28.447,4.864c-1.216,0-1.6-.1-1.792-0.352a7.247,7.247,0,0,1-.352-2.752l0.032-1.472,0.032-3.04c0.064-3.136.064-3.136,0.064-3.232a5.449,5.449,0,0,0-.928-3.616c-0.768-.928-2.24-1.408-4.287-1.408a9.619,9.619,0,0,0-4.672,1.024,3.8,3.8,0,0,0-2.176,3.072c0,0.672.48,0.96,1.568,0.96a2.067,2.067,0,0,0,1.12-.256,1.206,1.206,0,0,0,.352-1.088c0.128-1.984,1.216-2.944,3.328-2.944a2.661,2.661,0,0,1,2.623,1.248,6.459,6.459,0,0,1,.448,2.912v2.016a35.119,35.119,0,0,0-5.695.768c-3.1.7-4.7,2.336-4.7,4.864a4.6,4.6,0,0,0,1.408,3.392,4.854,4.854,0,0,0,3.264.992,6.328,6.328,0,0,0,4.159-1.376,8.064,8.064,0,0,0,1.568-1.376c0.128,2.144.384,2.656,1.344,2.656a27.094,27.094,0,0,0,3.3-.32V23.336Zm-4.64-6.687A8.99,8.99,0,0,1,111.9,21a4.91,4.91,0,0,1-4.095,2.336c-1.6,0-2.688-1.376-2.688-3.392a3.766,3.766,0,0,1,2.144-3.648c1.28-.64,2.528-0.9,5.375-1.152v1.5Zm8,10.834a4.826,4.826,0,0,0,1.761-1.3,4.269,4.269,0,0,0,.946-2.574,1.757,1.757,0,0,0-1.694-2.024,1.416,1.416,0,0,0-1.475,1.452c0,0.726.352,1.1,1.3,1.32,0.33,0.088.418,0.176,0.418,0.44,0,0.792-.528,1.452-1.7,2.134Zm14.048-3.41h8.511v-0.8c-2.592-.064-2.816-0.32-2.816-3.264V4.937c0-2.976.192-3.168,2.816-3.3V0.874h-8.511V1.642c2.591,0.128,2.783.32,2.783,3.3V20.008c0,2.944-.192,3.2-2.783,3.264v0.8ZM150.517,7.561l-4.832.352v0.7c1.824,0,2.208.48,2.208,2.88v8.575c0,2.976-.192,3.232-2.336,3.3v0.7h7.3v-0.7c-2.176-.064-2.336-0.288-2.336-3.3V14.537a7.778,7.778,0,0,1,1.088-3.9,4.089,4.089,0,0,1,3.616-2.144,2.85,2.85,0,0,1,2.815,1.7,8.408,8.408,0,0,1,.512,3.456v6.431c0,0.224-.064,1.408-0.1,1.76a1.72,1.72,0,0,1-.32,1.056,2.561,2.561,0,0,1-1.887.48v0.7h7.263v-0.7c-2.176-.064-2.336-0.288-2.336-3.3V13.449a6.9,6.9,0,0,0-.832-4c-0.864-1.376-2.176-1.984-4.191-1.984-2.656,0-4.224.928-5.632,3.392v-3.3Zm28.9,11.967c-1.088,2.56-2.848,3.872-5.151,3.872-3.328,0-5.344-2.976-5.344-7.839,0-4.608,1.728-7.3,4.64-7.3a3.2,3.2,0,0,1,3.359,2.944,1.361,1.361,0,0,0,.256,1.088,1.761,1.761,0,0,0,1.088.32c0.992,0,1.6-.384,1.6-0.992A3.809,3.809,0,0,0,178.484,9.1a7.191,7.191,0,0,0-4.735-1.632c-4.672,0-7.84,3.52-7.84,8.735,0,4.9,3.136,8.287,7.648,8.287a6.81,6.81,0,0,0,6.591-4.512Zm5.151,2.057A1.509,1.509,0,0,0,183,23.126a1.552,1.552,0,1,0,3.1,0A1.5,1.5,0,0,0,184.563,21.585Z"/></g></svg>