<?xml version="1.0" encoding="utf-8"?>
<!-- Generator: Adobe Illustrator 19.2.1, SVG Export Plug-In . SVG Version: 6.00 Build 0)  -->
<svg version="1.1" id="レイヤー_1" xmlns="http://www.w3.org/2000/svg" xmlns:xlink="http://www.w3.org/1999/xlink" x="0px"
	 y="0px" viewBox="0 0 2742.3 281.6" style="enable-background:new 0 0 2742.3 281.6;" xml:space="preserve">
<style type="text/css">
	.st0{fill:#F0ECE9;}
</style>
<g>
	<path class="st0" d="M139.5,138.1c1.8-0.3,17.7-3.6,47.5-9.8c5.3-10.7,10.5-21.2,15.5-31.7c14.5-29.3,24-53.5,28.5-72.5
		c0.5-3,0.5-5.8,0-8.3s-1.3-4.1-2.5-4.8c-3.7-2.2-8.4-2.4-14.3-0.8c-7.8,2-14.1,4.5-18.8,7.5c-11.8,7.8-27.8,21.4-47.8,40.8
		s-38,39.7-54,61c-14.8,19.8-28.8,42-41.9,66.6s-22.6,44.6-28.6,60.1c-2,5.3-3.5,9.8-4.5,13.3c-2,6.3-3.3,10.3-4,11.8
		c-1.3,3.2-2.9,5.7-4.6,7.5s-3.3,2.8-4.8,2.8s-2.7-0.5-3.8-1.5S0,277.3,0,274.7s0.4-5.6,1.3-9.1c0.8-2.5,3.1-7.5,6.8-15
		c0-0.2,1.6-3.6,4.9-10.3s5.9-12,7.9-16.1s5.1-10.3,9.4-18.6s8.2-15.8,11.8-22.3s7.9-14,13-22.4s10-16.3,14.9-23.6
		c10.2-15.2,22.7-31.4,37.5-48.6s27.7-31.5,38.5-42.6c10.8-10.8,22.7-20.8,35.5-30c12.7-9,25.3-14.3,38-16c3.8-0.5,8.1,0.8,12.9,3.9
		s7.6,7.1,8.6,12.1c1.2,6.3-0.2,14.5-4,24.5c-9,23.8-21.3,52.2-36.8,85c15-3,25-4.8,30-5.5c5.5-0.7,23.2-2,53.1-4.1
		s45.5-3.2,46.6-3.4c2.5-0.2,4-0.3,4.5-0.5l4-0.8c1.5,0.5,2.7,2.2,3.5,5s0.6,5.3-0.8,7.5c-1.3,1.8-2.8,2.7-4.5,2.5
		c-0.3,0-0.9-0.2-1.8-0.6l-1.8-0.9c-2.3-0.5-14.9-0.4-37.6,0.3s-37.1,1.3-43.1,1.8c-11.8,1-30.9,4.2-57.3,9.5
		c-5.3,11.2-8.4,17.8-9.3,20c-2.5,5.5-4.5,10.3-6,14.3c-0.5,1.3-1.3,3.6-2.4,6.8s-1.9,5.3-2.4,6.3c-2.7,5.3-6.2,8.8-10.5,10.3
		c-3.2,1.2-5.2,0.4-6-2.3c-1-3.2,0.3-8.7,3.8-16.5c0.7-1.7,1.9-3.9,3.6-6.8s2.9-4.7,3.4-5.5c2.3-4.5,6.4-12.4,12.3-23.8
		c-18.3,4.2-29.9,7.4-34.8,9.8c-1.5,0.7-2.7,1.3-3.5,2c-1.3,1.2-2.3,1.8-2.8,1.8c-2.8,0.8-5.1-0.8-6.9-4.8s-1.3-6.9,1.4-8.8
		C135.5,138.8,137,138.4,139.5,138.1z"/>
	<path class="st0" d="M344.2,127.1c-1.5-0.5-4.1,0-7.8,1.6c-3.7,1.6-7.6,4.2-11.8,7.9c-5.3,4.8-9.9,10.3-13.6,16.5
		s-5.5,11.8-5.1,16.8c0.2,3.8,3.6,6.8,10.4,8.8s13.9,2.9,21.4,2.8c9.5-0.2,18.3-1.2,26.3-3c8.8-1.8,32.6-10.9,71.3-27.3
		s62.3-27,70.8-32c3.3-2,5.7-3.5,7-4.5c4-2.7,6.1-4,6.3-4c2.5-1,5.2-0.6,8.1,1.3s4.1,4.1,3.6,6.8c-0.3,0.8-1.1,1.9-2.4,3.3
		s-2.6,2.3-4.1,3c-0.8,0.3-2,0.7-3.6,1.1s-2.7,0.7-3.4,0.9c-1.8,0.7-21.4,9.3-58.8,26c-37.3,16.7-58.4,25.8-63.3,27.3
		c-6.8,1.8-12.3,3.3-16.3,4.3s-10.6,2.3-19.8,4s-18.2,2.3-27.1,2s-17.4-1.6-25.4-3.8c-3.3-0.8-5.8-3.2-7.4-7s-2.3-8-2.1-12.6
		s1-8.8,2.5-12.6c2.8-7.5,7.3-14.5,13.5-21c8.8-9.3,17.3-15.4,25.5-18.2c2.7-1,5.8-1.3,9.3-0.8c4.5,0.5,7.3,1.8,8.3,3.8
		c2.2,3.7,2.7,6.8,1.5,9.4c-1.2,2.6-3,3.8-5.5,3.6s-4.5-1-6-2.5C345.8,127.8,345.1,127.3,344.2,127.1z"/>
	<path class="st0" d="M533,127.1c-1.5-0.5-4.1,0-7.8,1.6c-3.7,1.6-7.6,4.2-11.8,7.9c-5.3,4.8-9.9,10.3-13.6,16.5s-5.5,11.8-5.1,16.8
		c0.2,3.8,3.6,6.8,10.4,8.8s13.9,2.9,21.4,2.8c9.5-0.2,18.3-1.2,26.3-3c8.8-1.8,32.6-10.9,71.3-27.3s62.3-27,70.8-32
		c3.3-2,5.7-3.5,7-4.5c4-2.7,6.1-4,6.3-4c2.5-1,5.2-0.6,8.1,1.3s4.1,4.1,3.6,6.8c-0.3,0.8-1.1,1.9-2.4,3.3s-2.6,2.3-4.1,3
		c-0.8,0.3-2,0.7-3.6,1.1s-2.7,0.7-3.4,0.9c-1.8,0.7-21.4,9.3-58.8,26s-58.4,25.8-63.3,27.3c-6.8,1.8-12.3,3.3-16.3,4.3
		s-10.6,2.3-19.8,4s-18.2,2.3-27.1,2s-17.4-1.6-25.4-3.8c-3.3-0.8-5.8-3.2-7.4-7s-2.3-8-2.1-12.6s1-8.8,2.5-12.6
		c2.8-7.5,7.3-14.5,13.5-21c8.8-9.3,17.3-15.4,25.5-18.2c2.7-1,5.8-1.3,9.3-0.8c4.5,0.5,7.3,1.8,8.3,3.8c2.2,3.7,2.7,6.8,1.5,9.4
		c-1.2,2.6-3,3.8-5.5,3.6s-4.5-1-6-2.5C534.6,127.8,533.8,127.3,533,127.1z"/>
	<path class="st0" d="M729,126.4c-6.8,8.8-12.3,18.4-16.3,28.7s-4.3,17-0.8,20c1.3,1,4.1-0.4,8.3-4.1s8.7-8.9,13.5-15.4
		s8.6-12.8,11.3-18.8c0.8-1.5,1-3.3,0.5-5.3c-0.3-0.3-0.6-0.7-0.8-1h-0.3v-0.8c-0.3-0.7-0.5-1.4-0.5-2.2c-0.8-4.2-0.2-7.2,2-9
		c0.5-0.5,1.6-0.6,3.4-0.4s3.4,0.8,4.9,1.6c0.7,0.2,1.9,0.5,3.8,0.9s3.3,0.7,4.3,0.9c8,1,16.2-0.1,24.5-3.3c2.8-1,6.2-2.7,10-5
		c0.3-0.2,0.8-0.5,1.4-1s1-0.8,1.4-0.8c3-1.7,6.1-1.9,9.4-0.8s5,3.2,5.1,6c0.2,0.8-0.4,2-1.8,3.6s-2.8,2.8-4.3,3.6
		c-1.7,0.8-5.3,1.9-11,3.3c-1.7,0.3-5.3,1.2-11,2.7c-6.8,1.8-14.4,3.1-22.8,3.8c-0.7,0-1.7,0.1-3,0.4s-2.3,0.4-2.8,0.4
		c-4,12.3-11.1,24.2-21.3,35.5c-7.5,8.5-14.1,13.1-19.8,13.8c-4.3,0.3-8.2-1.6-11.5-5.9s-4.8-8.8-4.5-13.6c0.2-1.5,0.4-3,0.6-4.6
		s0.6-3.2,1.1-4.9s0.9-3.1,1.3-4.4s0.9-2.8,1.6-4.8s1.3-3.3,1.8-4.3s1.1-2.4,2.1-4.5s1.7-3.4,2-4s1.1-2,2.3-4.4l2-4
		c0.2-0.7,0.8-1.8,1.8-3.5s1.7-3,2-4c1.5-3.3,2.6-5.3,3.3-6c1.8-2.5,4.1-3.7,6.8-3.5s4.5,1.3,5.5,3.5s0.9,4.8-0.3,8
		C734.2,119.3,732.5,121.7,729,126.4z"/>
	<path class="st0" d="M818,123.2c-1.7,3.1-3,5.6-4,7.6c-1.3,3-2.3,5-2.8,6s-1.4,3.3-2.8,6.9s-2.2,6.5-2.5,8.6s-0.5,4.7-0.4,7.5
		s0.7,5.2,1.9,7c2.8,3.5,9.3,4.2,19.3,2.1s20.6-6.1,31.8-12.1c2.8-1.3,11-5.9,24.5-13.6s23.6-13,30.3-15.6c15.7-6,26.8-5.3,33.5,2.2
		c1.3,1.5,2.4,3.3,3.1,5.5s1.2,4,1.4,5.6s0.3,3.6,0.4,6s0.2,4,0.4,4.6c1,10.7,2.1,16,3.3,16c2.5-0.2,5.5-1.4,8.9-3.6s7.8-5.6,13-10
		s8.5-7.1,9.9-8.1c16.2-12.2,29.7-15.8,40.5-11c3.8,1.7,7.8,4.2,11.8,7.6s7.5,6,10.4,7.8s6.1,2.1,9.6,1.1
		c14.8-4.2,29.2-8.9,43.1-14.1s24.5-9.6,31.6-13.1c4.7-2.3,8.8-4.5,12.3-6.5c1.2-0.7,2.9-1.8,5.3-3.4s3.9-2.5,4.8-2.9
		c3.7-1.8,7.4-2.2,11.1-1s5.2,3.2,4.4,6c-0.3,1.2-1.5,2.7-3.5,4.5s-4.3,3.4-6.8,4.8c-1.5,0.8-3.6,1.7-6.4,2.6
		c-2.8,0.9-4.5,1.5-5.4,1.9c-34.5,13.8-62,23.8-82.5,29.8c-4.2,1.3-8.3,2-12.4,2.1s-8.3-0.6-12.8-2.1s-8.1-3.9-11.1-7.3
		c-1.8-1.8-3.4-3.3-4.8-4.5s-2.9-2.2-4.8-3.1s-3.8-1.3-5.9-1.3s-4.4,0.6-6.9,1.6c-5,2-9.5,4.3-13.4,6.9s-7.4,5.2-10.5,7.8
		s-4.7,4-4.9,4.1c-0.2,0-1.8,1.2-4.9,3.6s-5.5,4.1-7.1,5.1s-4,2-7,3s-5.7,1.2-8,0.5c-2.7-0.8-4.7-2.9-6-6.1s-2.5-8.3-3.4-15.3
		s-1.6-11.5-2.1-13.9c-1.7-7.3-7.3-9.9-17-7.8c-7.3,1.8-15.8,5.4-25.5,10.8c-3.2,1.8-10.3,6-21.3,12.6s-19.9,11.5-26.8,14.9
		s-13.5,5.9-20,7.8c-7.3,2-14.7,1.4-22.1-1.8s-12-7.9-13.6-14.3c-0.3-2-0.5-4-0.6-5.9s0-4,0.4-6.1s0.6-3.9,0.9-5.1s0.7-3,1.4-5.4
		s1.1-3.8,1.3-4.3c0.5-1.8,2.2-6.8,5-15c2.2-6.2,3.8-10.1,4.8-11.8c2.3-3.3,4.9-5.1,7.8-5.3s4.7,1,5.6,3.5s0.7,5.5-0.6,9
		C820.7,118.1,819.7,120.1,818,123.2z"/>
	<path class="st0" d="M1175.7,123.2c-1.7,3.1-3,5.6-4,7.6c-1.3,3-2.3,5-2.8,6s-1.4,3.3-2.8,6.9s-2.2,6.5-2.5,8.6s-0.5,4.7-0.4,7.5
		s0.7,5.2,1.9,7c2.8,3.5,9.3,4.2,19.3,2.1s20.6-6.1,31.8-12.1c2.8-1.3,11-5.9,24.5-13.6s23.6-13,30.3-15.6c15.7-6,26.8-5.3,33.5,2.2
		c1.3,1.5,2.4,3.3,3.1,5.5s1.2,4,1.4,5.6s0.3,3.6,0.4,6s0.2,4,0.4,4.6c1,10.7,2.1,16,3.3,16c2.5-0.2,5.5-1.4,8.9-3.6s7.8-5.6,13-10
		s8.5-7.1,9.9-8.1c16.2-12.2,29.7-15.8,40.5-11c3.8,1.7,7.8,4.2,11.8,7.6s7.5,6,10.4,7.8s6.1,2.1,9.6,1.1
		c14.8-4.2,29.2-8.9,43.1-14.1s24.5-9.6,31.6-13.1c4.7-2.3,8.8-4.5,12.3-6.5c1.2-0.7,2.9-1.8,5.3-3.4s3.9-2.5,4.8-2.9
		c3.7-1.8,7.4-2.2,11.1-1s5.2,3.2,4.4,6c-0.3,1.2-1.5,2.7-3.5,4.5s-4.3,3.4-6.8,4.8c-1.5,0.8-3.6,1.7-6.4,2.6
		c-2.8,0.9-4.5,1.5-5.4,1.9c-34.5,13.8-62,23.8-82.5,29.8c-4.2,1.3-8.3,2-12.4,2.1s-8.3-0.6-12.8-2.1s-8.1-3.9-11.1-7.3
		c-1.8-1.8-3.4-3.3-4.8-4.5s-2.9-2.2-4.8-3.1s-3.8-1.3-5.9-1.3s-4.4,0.6-6.9,1.6c-5,2-9.5,4.3-13.4,6.9s-7.4,5.2-10.5,7.8
		s-4.7,4-4.9,4.1c-0.2,0-1.8,1.2-4.9,3.6s-5.5,4.1-7.1,5.1s-4,2-7,3s-5.7,1.2-8,0.5c-2.7-0.8-4.7-2.9-6-6.1s-2.5-8.3-3.4-15.3
		s-1.6-11.5-2.1-13.9c-1.7-7.3-7.3-9.9-17-7.8c-7.3,1.8-15.8,5.4-25.5,10.8c-3.2,1.8-10.3,6-21.3,12.6s-19.9,11.5-26.8,14.9
		s-13.5,5.9-20,7.8c-7.3,2-14.7,1.4-22.1-1.8s-12-7.9-13.6-14.3c-0.3-2-0.5-4-0.6-5.9s0-4,0.4-6.1s0.6-3.9,0.9-5.1s0.7-3,1.4-5.4
		s1.1-3.8,1.3-4.3c0.5-1.8,2.2-6.8,5-15c2.2-6.2,3.8-10.1,4.8-11.8c2.3-3.3,4.9-5.1,7.8-5.3s4.7,1,5.6,3.5s0.7,5.5-0.6,9
		C1178.4,118.1,1177.4,120.1,1175.7,123.2z"/>
	<path class="st0" d="M1538.7,126.4c-6.8,8.8-12.3,18.4-16.3,28.7s-4.3,17-0.8,20c1.3,1,4.1-0.4,8.3-4.1s8.7-8.9,13.5-15.4
		s8.6-12.8,11.3-18.8c0.8-1.5,1-3.3,0.5-5.3c-0.3-0.3-0.6-0.7-0.8-1h-0.3v-0.8c-0.3-0.7-0.5-1.4-0.5-2.2c-0.8-4.2-0.2-7.2,2-9
		c0.5-0.5,1.6-0.6,3.4-0.4s3.4,0.8,4.9,1.6c0.7,0.2,1.9,0.5,3.8,0.9s3.3,0.7,4.3,0.9c8,1,16.2-0.1,24.5-3.3c2.8-1,6.2-2.7,10-5
		c0.3-0.2,0.8-0.5,1.4-1s1-0.8,1.4-0.8c3-1.7,6.1-1.9,9.4-0.8s5,3.2,5.1,6c0.2,0.8-0.4,2-1.8,3.6s-2.8,2.8-4.3,3.6
		c-1.7,0.8-5.3,1.9-11,3.3c-1.7,0.3-5.3,1.2-11,2.7c-6.8,1.8-14.4,3.1-22.8,3.8c-0.7,0-1.7,0.1-3,0.4s-2.3,0.4-2.8,0.4
		c-4,12.3-11.1,24.2-21.3,35.5c-7.5,8.5-14.1,13.1-19.8,13.8c-4.3,0.3-8.2-1.6-11.5-5.9s-4.8-8.8-4.5-13.6c0.2-1.5,0.4-3,0.6-4.6
		s0.6-3.2,1.1-4.9s0.9-3.1,1.3-4.4s0.9-2.8,1.6-4.8s1.3-3.3,1.8-4.3s1.1-2.4,2.1-4.5s1.7-3.4,2-4s1.1-2,2.3-4.4l2-4
		c0.2-0.7,0.8-1.8,1.8-3.5s1.7-3,2-4c1.5-3.3,2.6-5.3,3.3-6c1.8-2.5,4.1-3.7,6.8-3.5s4.5,1.3,5.5,3.5s0.9,4.8-0.3,8
		C1544,119.3,1542.2,121.7,1538.7,126.4z"/>
	<path class="st0" d="M1645.2,120.6c-3.8-0.3-11.7,2.7-23.5,9.1c-11.8,6.4-23.6,15.2-35.3,26.4c-3.3,3-5.9,6.1-7.8,9.4
		s-2.7,5.4-2.5,6.4c0.5,0.2,1.4,0.2,2.8,0.1s3.4-0.3,6.1-0.8s5.2-1,7.4-1.6c9.8-2.8,19.4-6.8,28.8-11.8c6.8-3.7,16.3-9.6,28.3-17.8
		s24-17.6,36-28.2c2.3-3,5.8-7.2,10.5-12.5l8.8-10c24-28.5,38.5-46.4,43.5-53.8c2.2-3.3,3.6-5.6,4.3-6.7c1.7-3,2.7-4.8,3-5.3
		c0.2-0.8,0.3-1.4,0.5-1.8c1-1.8,3-3,6.1-3.6s5.5,0.1,7.4,2.1c0.5,0.7,0.8,1.8,0.9,3.5s-0.1,3.3-0.6,4.8c-0.3,0.8-0.8,1.7-1.5,2.5
		c-0.2,0.2-0.3,0.3-0.3,0.5c-0.7,1.2-1.9,2.7-3.8,4.5c-3.2,3.8-10,11.4-20.5,22.8c-13,14.8-25.9,30.1-38.8,45.9s-20.8,26.4-24,31.9
		c-1.5,2.8-1.8,7.6-1,14.3c0.7,6.2,5.1,8.6,13.3,7.3c12-1.7,28.8-7.6,50.5-17.8c20-9.3,35.3-17.2,46-23.7c2.7-1.7,4.7-3,6-4
		c0.5-0.5,1-1,1.6-1.5s1.1-0.9,1.5-1.3s0.8-0.6,1.1-0.8c1.5-0.5,3.4,0.3,5.8,2.3s3.5,4.3,3.5,6.8c0,2.2-0.9,3.8-2.8,4.8
		c-0.7,0.3-1.6,0.6-2.9,0.9s-2.1,0.5-2.6,0.6c-0.7,0.3-3,1.5-7.1,3.6c-4.1,2.1-9.7,4.9-16.9,8.4s-14.5,6.9-22,10.3
		c-7.3,3.2-14.9,6-22.6,8.5s-14.8,4.5-21.1,5.9s-12.1,2.5-17.4,3.3s-9.5,1-12.8,0.9s-5.2-0.7-5.9-1.5c-2.2-2.3-3.5-6.6-3.9-12.9
		s0.6-13,3.1-20.4c-9.3,9.2-15.3,14.7-18,16.5c-9.8,6.8-18.5,12.3-26,16.3c-5.3,2.8-11.1,5.4-17.4,7.8s-12.6,4.3-19,5.8
		s-12.1,1.9-17.1,1.3s-8.3-2.7-9.9-6s0-8.2,4.9-14.6s10.5-12.5,16.9-18.1s13.1-11,20.1-16c10.2-7.3,20.3-12.3,30.5-14.8
		c3.2-0.8,6.6-0.9,10.3-0.3c5,0.7,8,2,9,4c3.2,6.5,2.7,10.8-1.5,12.8c-3.2,1.3-5.9,0.8-8.3-1.5c-0.2-0.3-0.3-0.6-0.5-0.8
		C1647.8,121.4,1646.7,120.8,1645.2,120.6z"/>
	<path class="st0" d="M1835.2,125.6l-3-0.4c-0.7-0.1-1.6,0-2.8,0.1c-4,0.7-9.7,4.6-17.1,11.9s-13.5,16.3-18.1,27.1
		c-1.2,2.7-1.3,5.6-0.3,8.8s2.4,5.1,4.3,5.8c5.2,2,11.1,0.5,17.8-4.5c2.5-1.8,5-3.9,7.6-6.1s5.5-4.9,8.9-8s5.8-5.3,7.3-6.6
		c0.5-0.3,1.3-1,2.3-1.9s1.8-1.6,2.3-2.1s1.3-1.2,2.4-2s1.8-1.4,2.3-1.8s1.1-0.9,2.1-1.6s1.7-1.2,2.1-1.4s1-0.5,1.9-0.9
		s1.4-0.5,1.8-0.4s0.8,0.3,1.5,0.3c1.3,0.3,2.4,0.9,3.3,1.8s1.5,1.7,2,2.5s0.9,1.9,1.1,3.1s0.4,2.3,0.5,3s0.1,1.8,0.1,3.3v2.6
		c0,0.3,0,1.2,0.1,2.6s0.2,2.5,0.3,3.4s0.2,2,0.4,3.4s0.4,2.6,0.8,3.5s0.8,1.9,1.4,2.9s1.2,1.8,1.9,2.5c1,0.7,2.3,1,3.8,1.1
		s3.5-0.2,6-0.9s4.7-1.3,6.5-1.9s4.7-1.5,8.5-2.6c1.7-0.7,2.9-1.1,3.8-1.3c16-5.3,36-13,60-23c28-11.5,48.4-20.4,61.3-26.7
		c5.2-2.3,9-4.2,11.5-5.5c1-0.5,2.2-1.2,3.6-2s2.6-1.5,3.6-2.1s1.8-1,2.5-1.1c3.8-1.3,7.5-1.2,11.1,0.4s4.8,3.7,3.6,6.4
		c-0.5,1-1.8,2.3-3.9,3.9s-4.4,3-6.9,4.1c-1.2,0.5-3,1.1-5.5,1.8s-4.3,1.2-5.3,1.5c-3.3,1.2-17.5,6.5-42.5,16s-49.2,18.6-72.6,27.4
		s-36.5,13.4-39.1,13.9l-2,0.8c-1.5,0.5-2.8,0.8-3.8,1s-2.3,0-4-0.4s-3.3-1.4-4.8-2.9c-1.2-1.2-2.3-2.5-3.3-4s-1.8-3-2.4-4.6
		s-1.1-3.2-1.6-4.9s-0.8-3.3-1-4.8l-0.5-4.5c-0.2-1.5-0.2-2.8-0.1-4s0.1-2.2,0.1-3.1v-1.9v-0.8c-0.5,0.3-1.2,1-2,2
		c-3.3,3-5.9,5.4-7.8,7.1s-4.6,4.3-8.4,7.5s-6.9,5.8-9.5,7.6s-5.8,3.9-9.5,6.1s-7,3.8-9.9,4.6s-5.8,1.3-9,1.4s-6.1-0.5-8.8-1.9
		c-4.2-2-6.4-6.3-6.8-12.9s0.7-13.3,3-20s5.2-12.4,8.5-16.9c6.2-8.5,13.9-15.5,23.3-21c2.7-1.7,5.8-2.8,9.5-3.5
		c4.5-0.8,8.1-1,10.8-0.5c4.3,1,7.2,2.8,8.5,5.3s1,4.8-1.1,6.8s-5.3,2.8-9.6,2.5C1837.5,125.9,1836.6,125.8,1835.2,125.6z"/>
	<path class="st0" d="M2033.7,111.9c7.8,0.2,18.5-0.3,32-1.3c0.3-0.5,0.8-1.1,1.3-1.8c7.2-10.8,14.9-22.2,23.1-34
		s14.7-21.1,19.4-27.9s7.8-11.5,9.3-14.1c0.2,0,0.4-0.3,0.6-0.8c0.3-0.5,0.5-0.8,0.6-1c-0.3,0.3-0.8,0.6-1.3,0.8
		c-0.3,0.5-1.4,1.7-3.1,3.6s-3.4,3.1-4.9,3.6c-3,1-5.6-0.1-7.8-3.3s-2.3-6-0.5-8.5c1-1.2,3.9-2.9,8.8-5.3c8.2-3.7,14.5-7.3,19-11
		c2.2-1.7,4.1-3.4,5.8-5.3c0.2-0.2,0.3-0.4,0.5-0.8s0.3-0.6,0.5-0.8c1.2-1.2,3.1-1.3,5.8-0.4s4.6,2.5,5.8,4.9c0.5,0.7,0.6,1.7,0.4,3
		s-0.7,2.4-1.4,3.3c-0.7,0.7-1.5,1.3-2.5,1.8c-0.7,2-1.8,4.1-3.5,6.3c-3,4.5-5.8,8.3-8.5,11.2c-15.3,19-32.1,41.8-50.3,68.3
		c-1.5,2.3-3.1,4.7-4.8,7c5.7-0.5,9.7-0.8,12-1c23.3-1.7,39.5-3.1,48.5-4.3c3.8-0.3,6.3-0.7,7.5-1l6.8-1.3c2.7,0.2,5,1.7,6.9,4.5
		s2.1,5.3,0.6,7.5c-1.5,2-4.3,3.1-8.3,3.3c-0.8,0-2-0.2-3.6-0.5s-2.6-0.5-3.1-0.5c-7-0.7-16.8-0.7-29.5,0c-16,0.5-30.7,1.5-44,3
		c-9,14.2-17.3,28.4-25,42.6s-13.2,25.1-16.5,32.6s-4.8,11.3-4.3,11.3c8.3-0.2,30.2-6.8,65.5-19.9s66.4-25.1,93.1-36.1
		s48.1-20,64.1-27c4-1.7,8.4-3.9,13.3-6.8c1.5-0.8,3.5-2,5.9-3.6s4-2.5,4.9-2.9c3.8-2,7.7-2.6,11.6-1.8s5.5,2.8,4.9,5.8
		c-0.2,1.2-1.4,2.8-3.8,4.9s-4.9,3.9-7.8,5.4c-0.7,0.5-4.9,2.2-12.8,5c-7.7,2.8-37.3,14.4-88.8,34.8s-84.5,33.4-99,39.3
		c-6.5,2.5-13.8,5-22,7.5c-10.2,3.2-17.2,4.8-21,4.8c-6,0-10.7-2.5-14-7.5s-4-9.9-2-14.8c6.7-17,20.3-41,40.8-72
		c-6.8,0.8-13.2,1.8-19,3c-3.5,0.7-5.8,1.2-6.8,1.5c-3.2,0.8-5.2,1.3-6,1.3c-3.2,0.2-5.5-0.8-6.9-3s-1.6-4.4-0.6-6.8s3-3.9,6-4.8
		C2026.7,111.9,2029.4,111.9,2033.7,111.9z"/>
	<path class="st0" d="M2287.5,126.1c-9.5,10.8-16.3,22.6-20.3,35.2c-1.5,5.2-1.8,9.3-0.9,12.5s2.5,5,4.6,5.5
		c5.2,1.2,11.7,0.7,19.5-1.5c7.3-2,28.3-11.5,62.8-28.5s54.4-27.5,59.8-31.5c1.7-1.2,2.9-2.3,3.8-3.3c0.3-0.3,0.7-0.8,1-1.3
		s0.6-0.9,0.9-1.1s0.5-0.5,0.9-0.6c1-0.3,2.8,0.4,5.3,2.1s3.9,3.7,4.3,5.9c0.3,2.3-0.2,3.9-1.5,4.8c-0.5,0.3-1.3,0.6-2.3,0.8
		s-1.7,0.3-2,0.5c-0.8,0.3-17.5,8.9-50.1,25.7s-51.1,26-55.6,27.5c-4.3,1.7-8.9,3.1-13.6,4.4s-10.3,2.5-16.8,3.8s-12.1,1.5-17.1,0.8
		s-8.5-2.6-10.5-5.6c-2.2-3.2-3.3-6.9-3.5-11.3s0.7-9.1,2.5-14.4s3.5-9.5,5-12.9s3.7-7.6,6.5-12.8c2.8-5.2,4.3-7.8,4.5-8l1.3-2.3
		c0.8-1.5,1.3-2.7,1.5-3.5c1.2-2.5,2-4,2.5-4.5c2.5-3,5.5-3.3,9.1-0.9s4.5,5.5,2.9,9.1C2291.6,121.2,2290.2,122.9,2287.5,126.1z
		 M2329.7,55.1c0.7,2.5-0.5,5.5-3.5,9.1c-3,3.6-6.5,4.5-10.5,2.9c-3.2-1.5-4.5-4.8-3.9-10s2.3-8.7,5.1-10.5c3.8-2.7,7-3.2,9.4-1.5
		s3.2,4.3,2.4,7.8C2329.2,53.5,2329.6,54.3,2329.7,55.1z"/>
	<path class="st0" d="M2438.2,126.4c-6.8,8.8-12.3,18.4-16.3,28.7s-4.3,17-0.8,20c1.3,1,4.1-0.4,8.3-4.1s8.7-8.9,13.5-15.4
		s8.6-12.8,11.3-18.8c0.8-1.5,1-3.3,0.5-5.3c-0.3-0.3-0.6-0.7-0.8-1h-0.3v-0.8c-0.3-0.7-0.5-1.4-0.5-2.2c-0.8-4.2-0.2-7.2,2-9
		c0.5-0.5,1.6-0.6,3.4-0.4s3.4,0.8,4.9,1.6c0.7,0.2,1.9,0.5,3.8,0.9s3.3,0.7,4.3,0.9c8,1,16.2-0.1,24.5-3.3c2.8-1,6.2-2.7,10-5
		c0.3-0.2,0.8-0.5,1.4-1s1-0.8,1.4-0.8c3-1.7,6.1-1.9,9.4-0.8s5,3.2,5.1,6c0.2,0.8-0.4,2-1.8,3.6s-2.8,2.8-4.3,3.6
		c-1.7,0.8-5.3,1.9-11,3.3c-1.7,0.3-5.3,1.2-11,2.7c-6.8,1.8-14.4,3.1-22.8,3.8c-0.7,0-1.7,0.1-3,0.4s-2.3,0.4-2.8,0.4
		c-4,12.3-11.1,24.2-21.3,35.5c-7.5,8.5-14.1,13.1-19.8,13.8c-4.3,0.3-8.2-1.6-11.5-5.9s-4.8-8.8-4.5-13.6c0.2-1.5,0.4-3,0.6-4.6
		s0.6-3.2,1.1-4.9s0.9-3.1,1.3-4.4s0.9-2.8,1.6-4.8s1.3-3.3,1.8-4.3s1.1-2.4,2.1-4.5s1.7-3.4,2-4s1.1-2,2.3-4.4l2-4
		c0.2-0.7,0.8-1.8,1.8-3.5s1.7-3,2-4c1.5-3.3,2.6-5.3,3.3-6c1.8-2.5,4.1-3.7,6.8-3.5s4.5,1.3,5.5,3.5s0.9,4.8-0.3,8
		C2443.5,119.3,2441.7,121.7,2438.2,126.4z"/>
	<path class="st0" d="M2533.2,126.6c-3.5,6.2-6.3,12.2-8.3,18c-2.3,6.2-2.8,11.7-1.5,16.5c1.3,5.2,5.1,6.2,11.3,3
		c1.7-0.8,4.9-2.5,9.8-5.1s8.3-4.4,10.5-5.5l9.5-4.8c4.2-2.1,7.5-3.7,9.9-4.8s5.2-2.3,8.3-3.6s5.8-2.3,8-2.9s4.3-1,6.1-1.4
		c3.8-0.3,8.9,1.1,15.1,4.3s11.6,7.4,16.1,12.8c2.5,2.7,7,3.7,13.6,3.1s13.5-2.5,20.6-5.9c21.7-10.3,40.8-21,57.3-32
		c3-2,5.1-3.4,6.3-4.3c3.5-2.7,5.3-4.1,5.5-4.3c2.2-0.8,4.7-0.4,7.5,1.4s4,4,3.5,6.6c0,0.8-0.5,1.9-1.5,3.1s-2.2,2.2-3.5,2.9
		c-0.7,0.3-1.8,0.7-3.3,1s-2.5,0.7-3,1c-1.2,0.5-3.9,1.9-8.1,4.2c-4.3,2.3-10.1,5.5-17.6,9.6s-14.6,7.8-21.3,11.1
		c-0.8,0.5-3.6,2-8.4,4.6s-8.1,4.3-10,5.1s-4.6,1.9-8.1,3.3s-6.6,2.2-9.3,2.5c-4.7,0.5-9,0.4-12.9-0.4s-7-2-9.4-3.6s-4-3-5.1-4.1
		s-2-2.2-2.6-3.4c-1.8-2.8-4.8-5.3-9-7.3s-9.6-2.7-16.3-2c-1.5,0.2-3.1,0.5-4.8,0.9s-3.1,0.8-4.4,1.3s-2.8,1-4.8,1.9s-3.4,1.5-4.5,2
		s-2.7,1.4-4.9,2.6s-3.7,2.1-4.6,2.6s-2.6,1.5-5,2.9s-4,2.3-4.6,2.6c-5.8,3.5-11.5,6-17.1,7.6s-10.7,1.9-15.4,0.9s-7.8-3.6-9.3-7.8
		c-1-2.8-1.5-5.7-1.6-8.6s0.2-5.8,0.9-8.6s1.3-5.3,2-7.4s1.5-4.4,2.5-6.9l2-5c0-0.2,0.3-1.2,1-3.1s1.2-3.4,1.5-4.4
		c1-3.3,1.7-5.5,2-6.5c1.3-3,3.3-4.7,5.9-5.1s4.7,0.4,6.4,2.5s2.1,4.9,1.3,8.4C2537.2,119.4,2535.7,122.1,2533.2,126.6z"/>
</g>
</svg>
