<?xml version="1.0" encoding="utf-8"?>
<!-- Generator: Adobe Illustrator 19.2.1, SVG Export Plug-In . SVG Version: 6.00 Build 0)  -->
<svg version="1.1" id="レイヤー_1" xmlns="http://www.w3.org/2000/svg" xmlns:xlink="http://www.w3.org/1999/xlink" x="0px"
	 y="0px" viewBox="0 0 1535 417.1" style="enable-background:new 0 0 1535 417.1;" xml:space="preserve">
<style type="text/css">
	.st0{fill:#F0ECE9;}
</style>
<g>
	<path class="st0" d="M139.5,185.1c1.8-0.3,17.7-3.6,47.5-9.8c5.3-10.7,10.5-21.3,15.5-31.8c14.5-29.3,24-53.5,28.5-72.5
		c0.5-3,0.5-5.8,0-8.3s-1.3-4.1-2.5-4.8c-3.7-2.2-8.4-2.4-14.3-0.8c-7.8,2-14.1,4.5-18.8,7.5c-11.8,7.8-27.8,21.4-47.8,40.8
		s-38,39.7-54,61c-14.8,19.8-28.8,42-41.9,66.6s-22.6,44.6-28.6,60.1c-2,5.3-3.5,9.8-4.5,13.3c-2,6.3-3.3,10.3-4,11.8
		c-1.3,3.2-2.9,5.7-4.6,7.5s-3.3,2.8-4.8,2.8s-2.7-0.5-3.8-1.5S0,324.3,0,321.7s0.4-5.6,1.3-9.1c0.8-2.5,3.1-7.5,6.8-15
		c0-0.2,1.6-3.6,4.9-10.3s5.9-12,7.9-16.1s5.1-10.3,9.4-18.6s8.2-15.8,11.8-22.3s7.9-14,13-22.4s10-16.3,14.9-23.6
		c10.2-15.2,22.7-31.4,37.5-48.6s27.7-31.5,38.5-42.6c10.8-10.8,22.7-20.8,35.5-30c12.7-9,25.3-14.3,38-16c3.8-0.5,8.1,0.8,12.9,3.9
		s7.6,7.1,8.6,12.1c1.2,6.3-0.2,14.5-4,24.5c-9,23.8-21.3,52.2-36.8,85c15-3,25-4.8,30-5.5c5.5-0.7,23.2-2,53.1-4.1
		s45.5-3.2,46.6-3.4c2.5-0.2,4-0.3,4.5-0.5l4-0.8c1.5,0.5,2.7,2.2,3.5,5s0.6,5.3-0.8,7.5c-1.3,1.8-2.8,2.7-4.5,2.5
		c-0.3,0-0.9-0.2-1.8-0.6l-1.8-0.9c-2.3-0.5-14.9-0.4-37.6,0.3s-37.1,1.3-43.1,1.8c-11.8,1-30.9,4.2-57.3,9.5
		c-5.3,11.2-8.4,17.8-9.3,20c-2.5,5.5-4.5,10.3-6,14.3c-0.5,1.3-1.3,3.6-2.4,6.8s-1.9,5.3-2.4,6.3c-2.7,5.3-6.2,8.8-10.5,10.3
		c-3.2,1.2-5.2,0.4-6-2.3c-1-3.2,0.3-8.7,3.8-16.5c0.7-1.7,1.9-3.9,3.6-6.8s2.9-4.7,3.4-5.5c2.3-4.5,6.4-12.4,12.3-23.8
		c-18.3,4.2-29.9,7.4-34.8,9.8c-1.5,0.7-2.7,1.3-3.5,2c-1.3,1.2-2.3,1.8-2.8,1.8c-2.8,0.8-5.1-0.8-6.9-4.8s-1.3-6.9,1.4-8.8
		C135.5,185.8,137,185.5,139.5,185.1z"/>
	<path class="st0" d="M344.2,174.1c-1.5-0.5-4.1,0-7.8,1.6s-7.6,4.2-11.8,7.9c-5.3,4.8-9.9,10.3-13.6,16.5s-5.5,11.8-5.1,16.8
		c0.2,3.8,3.6,6.8,10.4,8.8s13.9,2.9,21.4,2.8c9.5-0.2,18.3-1.2,26.3-3c8.8-1.8,32.6-10.9,71.3-27.3s62.3-27,70.8-32
		c3.3-2,5.7-3.5,7-4.5c4-2.7,6.1-4,6.3-4c2.5-1,5.2-0.6,8.1,1.3s4.1,4.1,3.6,6.8c-0.3,0.8-1.1,1.9-2.4,3.3s-2.6,2.3-4.1,3
		c-0.8,0.3-2,0.7-3.6,1.1s-2.7,0.7-3.4,0.9c-1.8,0.7-21.4,9.3-58.8,26s-58.4,25.8-63.3,27.3c-6.8,1.8-12.3,3.3-16.3,4.3
		s-10.6,2.3-19.8,4s-18.2,2.3-27.1,2s-17.4-1.6-25.4-3.8c-3.3-0.8-5.8-3.2-7.4-7s-2.3-8-2.1-12.6s1-8.8,2.5-12.6
		c2.8-7.5,7.3-14.5,13.5-21c8.8-9.3,17.3-15.4,25.5-18.3c2.7-1,5.8-1.3,9.3-0.8c4.5,0.5,7.3,1.8,8.3,3.8c2.2,3.7,2.7,6.8,1.5,9.4
		s-3,3.8-5.5,3.6s-4.5-1-6-2.5C345.8,174.8,345.1,174.3,344.2,174.1z"/>
	<path class="st0" d="M508.7,158.9c7.8,0.2,18.5-0.3,32-1.3c0.3-0.5,0.8-1.1,1.3-1.8c7.2-10.8,14.9-22.2,23.1-34
		s14.7-21.1,19.4-27.9s7.8-11.5,9.3-14.1c0.2,0,0.4-0.3,0.6-0.8s0.5-0.8,0.6-1c-0.3,0.3-0.8,0.6-1.3,0.8c-0.3,0.5-1.4,1.7-3.1,3.6
		s-3.4,3.1-4.9,3.6c-3,1-5.6-0.1-7.8-3.3s-2.3-6-0.5-8.5c1-1.2,3.9-2.9,8.8-5.3c8.2-3.7,14.5-7.3,19-11c2.2-1.7,4.1-3.4,5.8-5.3
		c0.2-0.2,0.3-0.4,0.5-0.8s0.3-0.6,0.5-0.8c1.2-1.2,3.1-1.3,5.8-0.4s4.6,2.5,5.8,4.9c0.5,0.7,0.6,1.7,0.4,3s-0.7,2.4-1.4,3.3
		c-0.7,0.7-1.5,1.3-2.5,1.8c-0.7,2-1.8,4.1-3.5,6.3c-3,4.5-5.8,8.3-8.5,11.3c-15.3,19-32.1,41.8-50.3,68.3c-1.5,2.3-3.1,4.7-4.8,7
		c5.7-0.5,9.7-0.8,12-1c23.3-1.7,39.5-3.1,48.5-4.3c3.8-0.3,6.3-0.7,7.5-1l6.8-1.3c2.7,0.2,5,1.7,6.9,4.5s2.1,5.3,0.6,7.5
		c-1.5,2-4.3,3.1-8.3,3.3c-0.8,0-2-0.2-3.6-0.5s-2.6-0.5-3.1-0.5c-7-0.7-16.8-0.7-29.5,0c-16,0.5-30.7,1.5-44,3
		c-9,14.2-17.3,28.4-25,42.6s-13.2,25.1-16.5,32.6s-4.8,11.3-4.3,11.3c8.3-0.2,30.2-6.8,65.5-19.9s66.4-25.1,93.1-36.1
		s48.1-20,64.1-27c4-1.7,8.4-3.9,13.3-6.8c1.5-0.8,3.5-2,5.9-3.6s4-2.5,4.9-2.9c3.8-2,7.7-2.6,11.6-1.8s5.5,2.8,4.9,5.8
		c-0.2,1.2-1.4,2.8-3.8,4.9s-4.9,3.9-7.8,5.4c-0.7,0.5-4.9,2.2-12.8,5c-7.7,2.8-37.3,14.4-88.8,34.8s-84.5,33.4-99,39.3
		c-6.5,2.5-13.8,5-22,7.5c-10.2,3.2-17.2,4.8-21,4.8c-6,0-10.7-2.5-14-7.5s-4-9.9-2-14.8c6.7-17,20.3-41,40.8-72
		c-6.8,0.8-13.2,1.8-19,3c-3.5,0.7-5.8,1.2-6.8,1.5c-3.2,0.8-5.2,1.3-6,1.3c-3.2,0.2-5.5-0.8-6.9-3s-1.6-4.4-0.6-6.8s3-3.9,6-4.8
		C501.7,159,504.4,158.9,508.7,158.9z"/>
	<path class="st0" d="M762.5,173.1c-9.5,10.8-16.3,22.6-20.3,35.3c-1.5,5.2-1.8,9.3-0.9,12.5s2.5,5,4.6,5.5
		c5.2,1.2,11.7,0.7,19.5-1.5c7.3-2,28.3-11.5,62.8-28.5s54.4-27.5,59.8-31.5c1.7-1.2,2.9-2.3,3.8-3.3c0.3-0.3,0.7-0.8,1-1.3
		c0.3-0.5,0.6-0.9,0.9-1.1s0.5-0.5,0.9-0.6c1-0.3,2.8,0.4,5.3,2.1s3.9,3.7,4.3,5.9c0.3,2.3-0.2,3.9-1.5,4.8
		c-0.5,0.3-1.3,0.6-2.3,0.8s-1.7,0.3-2,0.5c-0.8,0.3-17.5,8.9-50.1,25.8c-32.6,16.8-51.1,26-55.6,27.5c-4.3,1.7-8.9,3.1-13.6,4.4
		c-4.8,1.3-10.3,2.5-16.8,3.8s-12.1,1.5-17.1,0.8s-8.5-2.6-10.5-5.6c-2.2-3.2-3.3-6.9-3.5-11.3s0.7-9.1,2.5-14.4s3.5-9.5,5-12.9
		s3.7-7.6,6.5-12.8s4.3-7.8,4.5-8l1.3-2.3c0.8-1.5,1.3-2.7,1.5-3.5c1.2-2.5,2-4,2.5-4.5c2.5-3,5.5-3.3,9.1-0.9s4.5,5.5,2.9,9.1
		C766.6,168.2,765.2,170,762.5,173.1z M804.7,102.1c0.7,2.5-0.5,5.5-3.5,9.1s-6.5,4.5-10.5,2.9c-3.2-1.5-4.5-4.8-3.9-10
		c0.6-5.2,2.3-8.7,5.1-10.5c3.8-2.7,7-3.2,9.4-1.5c2.4,1.7,3.2,4.3,2.4,7.8C804.2,100.5,804.6,101.3,804.7,102.1z"/>
	<path class="st0" d="M882.5,171.9c-2.8,3.8-8.7,14.3-17.5,31.5c-1.5,2.8-3.3,7.1-5.5,12.8c-2.2,5.7-3.4,8.8-3.8,9.5
		c7.7-5.7,25.8-16.5,54.5-32.6c28.7-16.1,47.2-25.6,55.5-28.6c0.8-0.3,2.4-0.8,4.8-1.5c2.3-0.7,4-1.2,5-1.5c5.3-1.7,8.3-2.6,9-2.8
		c3.5-0.3,6.7,0.8,9.5,3.4c2.8,2.6,3.3,5,1.5,7.4c-1.5,2-4.9,3.5-10.3,4.5c-1,0.2-2.5,0.3-4.4,0.3c-1.9,0-3.4,0.1-4.4,0.3
		c-5.2,0.7-22.3,8-51.5,22c-29.2,14-45.8,22.5-50,25.5c-2,1.5-9.3,7.3-21.8,17.3c-4,3.2-7.2,3.1-9.5-0.3c-2.8-3.7-2.3-9.5,1.5-17.5
		c2.7-5.8,5.9-12.8,9.8-20.9c3.8-8.1,6.9-14.5,9.3-19.4c2.3-4.8,4-8.5,5-11c1.3-3.2,2.1-5.1,2.3-5.8c0.7-2.3,1.1-3.7,1.3-4
		c1.8-1.8,4.5-1.5,8.1,0.9c3.6,2.4,5.1,4.5,4.6,6.4L882.5,171.9z"/>
	<path class="st0" d="M994.5,173.1c-9.5,10.8-16.3,22.6-20.3,35.3c-1.5,5.2-1.8,9.3-0.9,12.5c0.9,3.2,2.5,5,4.6,5.5
		c5.2,1.2,11.7,0.7,19.5-1.5c7.3-2,28.3-11.5,62.8-28.5s54.4-27.5,59.8-31.5c1.7-1.2,2.9-2.3,3.8-3.3c0.3-0.3,0.7-0.8,1-1.3
		c0.3-0.5,0.6-0.9,0.9-1.1s0.5-0.5,0.9-0.6c1-0.3,2.8,0.4,5.3,2.1s3.9,3.7,4.3,5.9c0.3,2.3-0.2,3.9-1.5,4.8
		c-0.5,0.3-1.3,0.6-2.3,0.8s-1.7,0.3-2,0.5c-0.8,0.3-17.5,8.9-50.1,25.8c-32.6,16.8-51.1,26-55.6,27.5c-4.3,1.7-8.9,3.1-13.6,4.4
		s-10.3,2.5-16.8,3.8c-6.4,1.3-12.1,1.5-17.1,0.8s-8.5-2.6-10.5-5.6c-2.2-3.2-3.3-6.9-3.5-11.3c-0.2-4.3,0.7-9.1,2.5-14.4
		c1.8-5.3,3.5-9.5,5-12.9s3.7-7.6,6.5-12.8c2.8-5.2,4.3-7.8,4.5-8l1.3-2.3c0.8-1.5,1.3-2.7,1.5-3.5c1.2-2.5,2-4,2.5-4.5
		c2.5-3,5.5-3.3,9.1-0.9c3.6,2.4,4.5,5.5,2.9,9.1C998.6,168.2,997.2,170,994.5,173.1z M1036.7,102.1c0.7,2.5-0.5,5.5-3.5,9.1
		s-6.5,4.5-10.5,2.9c-3.2-1.5-4.5-4.8-3.9-10c0.6-5.2,2.3-8.7,5.1-10.5c3.8-2.7,7-3.2,9.4-1.5c2.4,1.7,3.2,4.3,2.4,7.8
		C1036.2,100.5,1036.6,101.3,1036.7,102.1z"/>
	<path class="st0" d="M1113.7,158.9c7.8,0.2,18.5-0.3,32-1.3c0.3-0.5,0.8-1.1,1.3-1.8c7.2-10.8,14.9-22.2,23.1-34
		s14.7-21.1,19.4-27.9c4.7-6.8,7.8-11.5,9.3-14.1c0.2,0,0.4-0.3,0.6-0.8s0.5-0.8,0.6-1c-0.3,0.3-0.8,0.6-1.3,0.8
		c-0.3,0.5-1.4,1.7-3.1,3.6s-3.4,3.1-4.9,3.6c-3,1-5.6-0.1-7.8-3.3c-2.2-3.2-2.3-6-0.5-8.5c1-1.2,3.9-2.9,8.8-5.3
		c8.2-3.7,14.5-7.3,19-11c2.2-1.7,4.1-3.4,5.8-5.3c0.2-0.2,0.3-0.4,0.5-0.8c0.2-0.3,0.3-0.6,0.5-0.8c1.2-1.2,3.1-1.3,5.8-0.4
		c2.7,0.9,4.6,2.5,5.8,4.9c0.5,0.7,0.6,1.7,0.4,3s-0.7,2.4-1.4,3.3c-0.7,0.7-1.5,1.3-2.5,1.8c-0.7,2-1.8,4.1-3.5,6.3
		c-3,4.5-5.8,8.3-8.5,11.3c-15.3,19-32.1,41.8-50.3,68.3c-1.5,2.3-3.1,4.7-4.8,7c5.7-0.5,9.7-0.8,12-1c23.3-1.7,39.5-3.1,48.5-4.3
		c3.8-0.3,6.3-0.7,7.5-1l6.8-1.3c2.7,0.2,5,1.7,6.9,4.5c1.9,2.8,2.1,5.3,0.6,7.5c-1.5,2-4.3,3.1-8.3,3.3c-0.8,0-2-0.2-3.6-0.5
		c-1.6-0.3-2.6-0.5-3.1-0.5c-7-0.7-16.8-0.7-29.5,0c-16,0.5-30.7,1.5-44,3c-9,14.2-17.3,28.4-25,42.6c-7.7,14.3-13.2,25.1-16.5,32.6
		c-3.3,7.5-4.8,11.3-4.3,11.3c8.3-0.2,30.2-6.8,65.5-19.9c35.3-13.1,66.4-25.1,93.1-36.1s48.1-20,64.1-27c4-1.7,8.4-3.9,13.3-6.8
		c1.5-0.8,3.5-2,5.9-3.6c2.4-1.6,4-2.5,4.9-2.9c3.8-2,7.7-2.6,11.6-1.8c3.9,0.8,5.5,2.8,4.9,5.8c-0.2,1.2-1.4,2.8-3.8,4.9
		c-2.3,2.1-4.9,3.9-7.8,5.4c-0.7,0.5-4.9,2.2-12.8,5c-7.7,2.8-37.3,14.4-88.8,34.8s-84.5,33.4-99,39.3c-6.5,2.5-13.8,5-22,7.5
		c-10.2,3.2-17.2,4.8-21,4.8c-6,0-10.7-2.5-14-7.5c-3.3-5-4-9.9-2-14.8c6.7-17,20.3-41,40.8-72c-6.8,0.8-13.2,1.8-19,3
		c-3.5,0.7-5.8,1.2-6.8,1.5c-3.2,0.8-5.2,1.3-6,1.3c-3.2,0.2-5.5-0.8-6.9-3c-1.4-2.2-1.6-4.4-0.6-6.8s3-3.9,6-4.8
		C1106.7,159,1109.4,158.9,1113.7,158.9z"/>
	<path class="st0" d="M1367,173.9c-1.8,2.5-4.4,6.8-7.6,13s-6.1,12.8-8.6,20c-1.5,4.2-2,7.8-1.4,11c0.6,3.2,1.8,5.3,3.6,6.3
		c4.5,2.7,9.5,3.1,15,1.3c4.8-1.5,15.4-9.4,31.6-23.6s26.6-24.1,31.1-29.6l3.8-4.8c2.2-3,3.3-4.6,3.5-4.8l1-0.5
		c0.2-0.2,0.4-0.3,0.8-0.5c2.7-2,5.5-1.5,8.5,1.6s3.7,5.9,2,8.4c-0.2,0.3-0.7,0.8-1.5,1.5c-0.3,0.5-0.7,0.9-1.1,1.3
		c-0.4,0.3-1,0.8-1.6,1.3c-4.5,5.2-13.2,20.7-26,46.6c-12.8,25.9-21.3,44.3-25.3,55.1c-3.8,10.3-10.3,30.5-19.3,60.5
		c14.7-33,24.6-54.2,29.8-63.5c13.3-23.8,26.9-44,40.8-60.5c11-13,23.2-24.6,36.6-34.8c13.4-10.2,23.5-16.9,30.1-20.3
		c0.5-0.2,2.9-1.1,7.3-2.8c3.8-1.5,6.1-2.3,6.8-2.3c2.7,0,4.9,1.4,6.8,4.3c1.8,2.8,2,5.3,0.5,7.5c-1.3,1.8-3.5,3-6.5,3.5
		c-0.5,0-1.4,0-2.8-0.1c-1.3-0.1-2.3-0.1-3-0.1c-1.8,0.2-5.5,1.6-10.9,4.3c-5.4,2.7-12.4,6.9-20.9,12.6s-16.1,12-22.8,18.9
		c-12.2,12.2-24.2,27.3-36,45.3c-8.5,13-20.9,36.8-37.1,71.3s-26.5,58.8-30.9,73c-0.2,1-0.3,1.7-0.5,2.2c-0.2,1.3-0.5,2.6-1,3.8
		c-0.3,1.5-0.5,2.8-0.5,3.8c0.2,2,0.2,3.3,0,3.8c-0.7,1.8-2.2,2.9-4.5,3.1c-2.3,0.3-4.5-0.2-6.6-1.4c-2.1-1.2-3.1-2.8-3.1-4.8
		c0-0.7,0.3-1.8,1-3.3c-0.3-3.2-0.3-6.3,0.3-9.2c0.2-1.2,0.4-2.3,0.8-3.3c0.3-1,0.8-2.1,1.3-3.3s0.8-2.1,1-2.8
		c0.2-0.5,4.2-13.6,12-39.3c7.8-25.7,12.4-40.4,13.8-44.3c7.2-19,22.3-53.6,45.5-103.8c-21.3,19.8-33.1,30.3-35.3,31.5
		c-6.8,3.8-12.8,6.3-18,7.3c-6.2,1-12.5,0.1-19-2.8s-9.9-6.8-10.3-11.8c-0.3-7,0.5-13.8,2.4-20.3c1.9-6.5,4.3-12.6,7.1-18.4
		c2.8-5.8,4.4-9,4.8-9.9c0.2-0.5,0.5-1.3,0.9-2.4c0.4-1.1,0.7-2,0.9-2.6c0.7-2.3,1.3-3.8,1.8-4.3c2.5-2.7,5.5-2.8,9-0.3
		s4.6,5.2,3.3,8C1370,170,1369,171.4,1367,173.9z"/>
</g>
</svg>
