<?xml version="1.0" encoding="utf-8"?>
<!-- Generator: Adobe Illustrator 19.2.1, SVG Export Plug-In . SVG Version: 6.00 Build 0)  -->
<svg version="1.1" id="レイヤー_1" xmlns="http://www.w3.org/2000/svg" xmlns:xlink="http://www.w3.org/1999/xlink" x="0px"
	 y="0px" viewBox="0 0 1500.7 233.7" style="enable-background:new 0 0 1500.7 233.7;" xml:space="preserve">
<style type="text/css">
	.st0{fill:#F0ECE9;}
</style>
<g>
	<path class="st0" d="M72.1,66.9c0.4-1.3,0.8-2.7,1.1-4s0.6-2.5,0.8-3.6s0.1-2.8-0.1-5.1s-0.4-3.8-0.4-4.3c-0.5,1.2-1.9,3.1-4.3,5.8
		C63.4,62.2,56.3,73.3,48,89.2c-7.3,13.8-14.2,28.8-20.5,45c-6.5,16.2-11.5,31.3-15,45.5c-3.2,12.7-4.6,21.6-4.3,26.8
		c0.7,11.2,3.3,16.8,8,17c6,0.2,20.8-2.2,44.5-7s50-11.4,79-19.8c43.7-12.8,86.2-28.9,127.5-48.3c2.8-1.3,7.7-3.3,14.5-6
		c7-2.8,11.5-4.4,13.5-4.8c6.2-0.8,11.1,0.5,14.8,4c2.2,2.2,2.3,4.1,0.5,5.9s-6.8,3.5-14.8,5.4c-1,0.2-3,0.5-5.9,0.9
		s-5.2,0.9-6.9,1.4c-2.8,1-21.5,7.3-56.1,18.8s-68.8,22.8-102.8,33.8S69.5,224.9,62,226.4c-1.5,0.3-5,1.2-10.4,2.5
		s-9.7,2.3-12.9,2.9s-7.1,1.1-11.8,1.6s-8.8,0.4-12.3-0.4s-6.3-2-8.5-3.9c-9.7-7.5-8.1-32.8,4.7-76c2.8-9.5,8.1-23.2,15.8-41
		c4.8-11,9.8-21.5,15-31.5c6.7-12.5,11.4-20.5,14.3-24c3.8-5,7.9-8.4,12.3-10.3s8.2-2.3,11.5-1.3c4.5-15.2,7.8-26.7,9.8-34.5
		c0.2-0.3,0.4-1,0.8-2s0.6-1.8,0.8-2.5c0.5-2.2,0.9-3.5,1.3-4c2.2-2.7,5.1-2.9,8.8-0.6s4.9,4.8,3.8,7.6c0,0.3-0.2,0.7-0.5,1.1
		s-0.7,0.9-1.1,1.5s-0.7,1-0.9,1.4c-5.2,7.7-10.1,19.7-14.8,36c-0.3,1.2-0.7,2.3-1,3.3c0.3,2.2,0.4,5.9,0.3,11.3
		c-0.2,4.5-0.8,8.3-2,11.3c-1.3,3.5-2.8,6.3-4.5,8.5v1.8L80,88.9c-0.5,1.2-2.2,1.8-5.1,2s-5.3-0.6-7.1-2.3c-1.5-1.5-2.1-2.9-1.8-4.3
		c0.2-0.3,0.5-0.8,1.1-1.5s1-1.2,1.1-1.5c0.5-1.2,1.1-2.5,1.8-4c0.2-2.3,0.6-4.8,1.3-7.5C71.4,69.3,71.7,68.3,72.1,66.9z"/>
	<path class="st0" d="M305.7,145.9c-0.5,1-1.1,2.2-1.9,3.6s-1.4,2.6-1.9,3.6c-3.7,7.7-5.8,14.7-6.5,21c-0.5,5,0.5,9.9,3,14.8
		s6.3,7.7,11.5,8.5c3.5,0.8,7.3,0.8,11.3-0.1s8.6-2.8,13.9-5.8s9.2-5.2,11.9-6.9s7-4.6,13-8.8c10-6.8,16.8-8.3,20.5-4.3
		c1.2,2,1.6,3.9,1.3,5.8s-0.9,3.9-1.8,6.3s-1.3,3.8-1.3,4.5c0.5,1.8,1.7,3.5,3.5,5s3.8,2.3,5.8,2.3c10.5-0.2,35.7-6.3,75.5-18.5
		s68.3-21.7,85.3-28.5c5.7-2.3,10.4-4.3,14.3-6c1.2-0.7,2.7-1.5,4.6-2.4s3.6-1.7,5-2.3s2.5-1,3.4-1.4c6.7-2.2,12.3-2,16.8,0.5
		c2.7,1.3,3.3,3.1,1.8,5.3c-1.8,2.8-7.1,5.9-15.8,9.3c-1.8,0.7-4.4,1.4-7.6,2.3s-5.4,1.4-6.4,1.8c-4.3,1.2-18.3,5.5-41.9,13.1
		s-46.1,14.8-67.6,21.6s-33.4,10.5-35.8,11c-0.2,0.2-1.4,0.5-3.6,1.1s-4.2,1-5.9,1.4s-4.1,0.7-7.3,1s-6.1,0.4-8.8,0.3
		s-5.7-0.8-9.1-1.8s-6.7-2.3-9.9-4c-4.2-2.5-5-8.8-2.5-19l0.3-1.5c-1.3,1.7-3.2,3.3-5.6,4.9s-5.4,3.5-9,5.6s-6.4,3.9-8.4,5.3
		c-11.5,7.7-21.1,12.1-28.8,13.3c-5.7,0.7-11.3,0.3-16.9-1.3s-9.7-4.2-12.4-8c-7-10.3-8.4-24.4-4.3-42.3c0.3-1.3,0.9-3.3,1.8-5.8
		s1.3-4.2,1.5-5c1.2-4.3,2.1-7,2.8-8c1-2.2,2.8-3.3,5.3-3.5s4.6,0.6,6.4,2.4s2.3,4.1,1.6,7.1C306.6,144.1,306.2,144.9,305.7,145.9z"
		/>
	<path class="st0" d="M593.5,150.9c-9.5,10.8-16.3,22.6-20.3,35.3c-1.5,5.2-1.8,9.3-0.9,12.5s2.5,5,4.6,5.5
		c5.2,1.2,11.7,0.7,19.5-1.5c7.3-2,28.3-11.5,62.8-28.5s54.4-27.5,59.8-31.5c1.7-1.2,2.9-2.3,3.8-3.3c0.3-0.3,0.7-0.8,1-1.3
		s0.6-0.9,0.9-1.1s0.5-0.5,0.9-0.6c1-0.3,2.8,0.4,5.3,2.1s3.9,3.7,4.3,5.9c0.3,2.3-0.2,3.9-1.5,4.8c-0.5,0.3-1.3,0.6-2.3,0.8
		s-1.7,0.3-2,0.5c-0.8,0.3-17.5,8.9-50.1,25.8s-51.1,26-55.6,27.5c-4.3,1.7-8.9,3.1-13.6,4.4s-10.3,2.5-16.8,3.8s-12.1,1.5-17.1,0.8
		s-8.5-2.6-10.5-5.6c-2.2-3.2-3.3-6.9-3.5-11.3s0.7-9.1,2.5-14.4s3.5-9.5,5-12.9s3.7-7.6,6.5-12.8s4.3-7.8,4.5-8l1.3-2.3
		c0.8-1.5,1.3-2.7,1.5-3.5c1.2-2.5,2-4,2.5-4.5c2.5-3,5.5-3.3,9.1-0.9s4.5,5.5,2.9,9.1C597.6,146,596.1,147.8,593.5,150.9z
		 M635.7,79.9c0.7,2.5-0.5,5.5-3.5,9.1s-6.5,4.5-10.5,2.9c-3.2-1.5-4.5-4.8-3.9-10s2.3-8.7,5.1-10.5c3.8-2.7,7-3.2,9.4-1.5
		s3.2,4.3,2.4,7.8C635.2,78.3,635.6,79.1,635.7,79.9z"/>
	<path class="st0" d="M719.7,154.2c-0.5,0.7-0.9,1.3-1.3,1.8s-0.6,0.8-0.8,0.9s1.5,0.5,4.9,1.4s8.8,2.1,16.1,3.8s15.8,3.6,25.5,5.8
		c5.8,1.2,10.4,3.7,13.8,7.5c19.8-5.7,51.5-13,95.1-22.1s71.6-14.5,84.1-16.1c6.5-0.8,10.2-1.3,11-1.5l9.8-1.5
		c3.7,0,6.8,1.4,9.4,4.1s2.9,5.2,0.9,7.4c-1.8,2.2-5.6,3.4-11.3,3.8c-1.2,0-2.9-0.1-5.1-0.4s-3.8-0.4-4.6-0.4
		c-6.7-0.2-34.4,3.6-83.3,11.3s-76.9,12.6-84.3,14.8c-5.7,1.8-11.8,4.2-18.3,7c0,0.5,0.1,0.9,0.3,1.3c0.5,3.2-0.3,6.7-2.4,10.5
		s-4.7,7.2-7.9,10c-6.5,5.7-15.2,8.9-26,9.8c-8.3,0.8-12.5-0.5-12.5-4c0-0.3,0.1-0.6,0.3-0.8c0.7-3.7,2-7,3.9-9.9s4.3-5.4,7.1-7.5
		s5.2-3.7,7.1-4.8s4.4-2.3,7.5-3.6s4.7-2.1,4.9-2.3c0.8-0.3,1.8-0.8,2.8-1.3c-3.8-1.5-8.5-2.8-14-3.8c-1,0-2.4-0.2-4.3-0.5
		c-8.2-1.3-14.3-2.3-18.3-3s-8.2-1.7-12.5-3s-7.5-2.8-9.5-4.5c-1.3-1-2.3-2.6-2.8-4.9s-0.6-4.4-0.3-6.4c1-4.8,2.9-8.3,5.8-10.5
		c8-6.5,13.7-8.8,17-6.8c2.8,2,2.2,5.9-2,11.8c-1.3,1.7-2.8,3.3-4.5,5C720.7,152.9,720.2,153.5,719.7,154.2z M747.5,202.2
		c-0.8,0.7-1.5,1.3-2.1,2s-1.1,1.3-1.5,1.8s-0.8,1-1.1,1.4s-0.6,0.8-0.9,1.1s-0.5,0.6-0.6,0.8s-0.3,0.3-0.3,0.5l-0.3,0.3
		c0.5-0.3,2.7-1.1,6.5-2.3s6.7-2.4,8.5-3.8c9.5-6.7,14.9-12.7,16.3-18C762.3,190.6,754.1,196,747.5,202.2z"/>
	<path class="st0" d="M987.5,150.9c-9.5,10.8-16.3,22.6-20.3,35.3c-1.5,5.2-1.8,9.3-0.9,12.5s2.5,5,4.6,5.5
		c5.2,1.2,11.7,0.7,19.5-1.5c7.3-2,28.3-11.5,62.8-28.5s54.4-27.5,59.8-31.5c1.7-1.2,2.9-2.3,3.8-3.3c0.3-0.3,0.7-0.8,1-1.3
		s0.6-0.9,0.9-1.1s0.5-0.5,0.9-0.6c1-0.3,2.8,0.4,5.3,2.1s3.9,3.7,4.3,5.9c0.3,2.3-0.2,3.9-1.5,4.8c-0.5,0.3-1.3,0.6-2.3,0.8
		s-1.7,0.3-2,0.5c-0.8,0.3-17.5,8.9-50.1,25.8s-51.1,26-55.6,27.5c-4.3,1.7-8.9,3.1-13.6,4.4s-10.3,2.5-16.8,3.8s-12.1,1.5-17.1,0.8
		s-8.5-2.6-10.5-5.6c-2.2-3.2-3.3-6.9-3.5-11.3s0.7-9.1,2.5-14.4s3.5-9.5,5-12.9s3.7-7.6,6.5-12.8s4.3-7.8,4.5-8l1.3-2.3
		c0.8-1.5,1.3-2.7,1.5-3.5c1.2-2.5,2-4,2.5-4.5c2.5-3,5.5-3.3,9.1-0.9s4.5,5.5,2.9,9.1C991.6,146,990.1,147.8,987.5,150.9z
		 M1029.7,79.9c0.7,2.5-0.5,5.5-3.5,9.1s-6.5,4.5-10.5,2.9c-3.2-1.5-4.5-4.8-3.9-10s2.3-8.7,5.1-10.5c3.8-2.7,7-3.2,9.4-1.5
		s3.2,4.3,2.4,7.8C1029.2,78.3,1029.6,79.1,1029.7,79.9z"/>
	<path class="st0" d="M1139,151.4c-3.5,6.2-6.3,12.2-8.3,18c-2.3,6.2-2.8,11.7-1.5,16.5c1.3,5.2,5.1,6.2,11.3,3
		c1.7-0.8,4.9-2.5,9.8-5.1s8.3-4.4,10.5-5.5l9.5-4.8c4.2-2.1,7.5-3.7,9.9-4.8s5.2-2.3,8.3-3.6s5.8-2.3,8-2.9s4.3-1,6.1-1.4
		c3.8-0.3,8.9,1.1,15.1,4.3s11.6,7.4,16.1,12.8c2.5,2.7,7,3.7,13.6,3.1s13.5-2.5,20.6-5.9c21.7-10.3,40.8-21,57.3-32
		c3-2,5.1-3.4,6.3-4.3c3.5-2.7,5.3-4.1,5.5-4.3c2.2-0.8,4.7-0.4,7.5,1.4s4,4,3.5,6.6c0,0.8-0.5,1.9-1.5,3.1s-2.2,2.2-3.5,2.9
		c-0.7,0.3-1.8,0.7-3.3,1s-2.5,0.7-3,1c-1.2,0.5-3.9,1.9-8.1,4.3s-10.1,5.5-17.6,9.6s-14.6,7.8-21.3,11.1c-0.8,0.5-3.6,2-8.4,4.6
		s-8.1,4.3-10,5.1s-4.6,1.9-8.1,3.3s-6.6,2.2-9.3,2.5c-4.7,0.5-9,0.4-12.9-0.4s-7-2-9.4-3.6s-4-3-5.1-4.1s-2-2.2-2.6-3.4
		c-1.8-2.8-4.8-5.3-9-7.3s-9.6-2.7-16.3-2c-1.5,0.2-3.1,0.5-4.8,0.9s-3.1,0.8-4.4,1.3s-2.8,1-4.8,1.9s-3.4,1.5-4.5,2
		s-2.7,1.4-4.9,2.6s-3.7,2.1-4.6,2.6s-2.6,1.5-5,2.9s-4,2.3-4.6,2.6c-5.8,3.5-11.5,6-17.1,7.6s-10.7,1.9-15.4,0.9s-7.8-3.6-9.3-7.8
		c-1-2.8-1.5-5.7-1.6-8.6s0.2-5.8,0.9-8.6s1.3-5.3,2-7.4s1.5-4.4,2.5-6.9l2-5c0-0.2,0.3-1.2,1-3.1s1.2-3.4,1.5-4.4
		c1-3.3,1.7-5.5,2-6.5c1.3-3,3.3-4.7,5.9-5.1s4.7,0.4,6.4,2.5s2.1,4.9,1.3,8.4C1142.9,144.2,1141.5,146.9,1139,151.4z"/>
	<path class="st0" d="M1332.1,178.3c-1.9,4.8-2.8,8.4-2.6,10.9c0,1,0.5,2.3,1.5,3.8s2.5,3,4.4,4.6s4.7,3,8.3,4.1s7.5,1.8,11.9,2
		c7.8,0.2,15.3-0.5,22.4-2.1s12.6-3.3,16.6-5s9.4-4.4,16.3-7.9c14.8-7.5,28.7-15.3,41.6-23.3s21.8-13.8,26.6-17.5
		c2.5-2,4.6-3.8,6.3-5.3c0.5-0.5,1.2-1.3,2-2.4s1.4-1.7,1.8-1.9c1.3-1,3.4-0.9,6.3,0.4s4.6,3,5.3,5.4c0.3,0.8,0.3,1.9-0.3,3.3
		s-1.3,2.4-2.5,3.3c-0.5,0.5-1.5,1-3,1.6s-2.5,1-3,1.4s-3.3,2.1-8.3,5.3s-10.5,6.6-16.4,10.3s-13.4,8.1-22.5,13.3s-18,9.8-26.6,13.8
		c-12.3,6-27.1,10.3-44.3,13s-28.2,3.3-33,2c-9-2.5-15.2-7.3-18.5-14.5c-1.8-3.8-2.5-8.6-1.9-14.3s2.3-11.1,5.1-16.3
		c5.8-10,13.5-18.8,23.1-26.4s19.4-12,29.4-13.4c4.7-0.7,8,0.3,10.1,2.8s2.8,5.5,2,8.9s-2.5,6-5.1,7.9c-5,3.5-11.2,7.1-18.5,10.8
		c-2.8,1.5-6.7,3.1-11.5,4.8c-0.5,0.2-1.3,0.5-2.5,1s-1.9,0.8-2.3,0.9s-1,0.3-2.1,0.6s-1.8,0.4-2,0.3s-0.9-0.3-1.9-0.3
		c-1.3-0.2-2.5-0.4-3.5-0.8C1336.9,168.5,1334,173.5,1332.1,178.3z M1379.7,135.9c-6.8-0.3-12.6,1.3-17.3,4.8
		c-3,2.2-5.8,4.6-8.5,7.3c0.2,0,0.3-0.1,0.5-0.3c7.3-1.8,16.1-5.8,26.3-11.8H1379.7z"/>
</g>
</svg>
