<?xml version="1.0" encoding="utf-8"?>
<!-- Generator: Adobe Illustrator 19.2.1, SVG Export Plug-In . SVG Version: 6.00 Build 0)  -->
<svg version="1.1" id="レイヤー_1" xmlns="http://www.w3.org/2000/svg" xmlns:xlink="http://www.w3.org/1999/xlink" x="0px"
	 y="0px" viewBox="0 0 1866.5 363.7" style="enable-background:new 0 0 1866.5 363.7;" xml:space="preserve">
<style type="text/css">
	.st0{fill:#F0ECE9;}
</style>
<g>
	<path class="st0" d="M177,37c-0.3-3.5-1.7-7.2-4.1-11.1s-6-7.2-10.6-9.9c-4.8-2.7-10.8-4.4-18-5.2s-15.2-0.5-24,1
		c-14,2.5-28.3,7.5-42.9,15S49.5,43.7,37.5,55C26.7,65.2,18.8,77.9,14,93c-3,9.3-4.5,18.3-4.5,26.8s1.8,14.5,5.3,18
		c5,5.5,11.4,10.7,19.3,15.5s14.1,8.3,18.8,10.3s10.7,4.4,18,7.3c1.7,0.7,10.3,3.8,25.9,9.3s29.4,10.6,41.4,15.3
		c6.3,2.5,11.5,4.7,15.5,6.5c11.2-12,22.5-23.1,34-33.3c6.8-6.2,13.8-11.5,20.8-16c8.3-5.7,13.8-8.5,16.5-8.5c5.8,0.3,9.2,2.7,10,7
		c0.7,3-0.2,4.8-2.5,5.3c-0.2,0.2-0.4,0.3-0.8,0.3c-0.2,0-0.8,0.4-2,1.1s-2.3,1.3-3.5,1.6c-6.2,2-11,4.1-14.5,6.3
		s-9.6,7.1-18.3,14.8s-18,16.8-28,27.5c11.3,6.5,20.4,14.1,27.3,22.8c4.2,5.7,6.2,12,6.1,19.1s-1.9,13.5-5.4,19.4
		c-5.7,9-15.8,16.8-30.3,23.3c-12.8,5.7-23.8,8-33,7c-8.3-0.8-14.8-4-19.5-9.6s-6-11.6-4-18.1c4.5-15.2,16.2-33.8,35-55.8l5.5-6.5
		c-9.8-4.5-29.7-12.1-59.5-22.8c-0.7-0.3-3.7-1.4-9.1-3.3s-9-3.1-10.9-3.9s-4.8-1.9-9-3.5s-7.8-3.1-10.9-4.6s-6.1-3.1-9.1-4.8
		C12.5,152.4-0.3,134.9,0,114c0.2-20.2,9.8-41.3,29-63.3c13.5-15.7,30.8-28.2,51.8-37.5c23.3-10.2,43.3-14.5,59.8-13
		c10.7,0.8,19.9,3.5,27.8,7.9s13.6,9.3,17.3,14.6c2.7,4.2,4.3,10.1,5,17.8c0.2,0.5,0.3,0.9,0.3,1.3c2-1.8,4.1-3.8,6.3-6
		c0.5-0.5,1.6-1.5,3.4-3.1s3.1-2.8,4.1-3.6c4-3.7,6.2-5.6,6.5-5.8c2.7-1.8,5.8-2.2,9.3-1s5.1,3.1,4.8,5.8c-0.2,1-0.9,2.3-2.3,4
		s-2.8,3.1-4.3,4.3c-0.8,0.7-2.1,1.4-3.9,2.3s-3,1.4-3.9,1.8c-7.2,4.7-13.9,9.8-20.3,15.3c-0.3,1.5-0.8,3.1-1.5,4.8
		c-0.8,2-1.7,3.9-2.5,5.8c0,1.3-0.3,2.7-0.8,4c-0.5,1.5-2.1,4.6-4.8,9.3c-7.8,13.8-14.2,23.8-19,30c-1,1.5-2.4,2.8-4.1,3.9
		s-3.7,1.8-5.9,2.1s-4-0.4-5.5-2.3c-1.8-2-1.4-6.8,1.3-14.5c1.8-5.5,4.2-10.4,7-14.8c5.3-8,11.8-16.2,19.3-24.5
		c0.3-1.2,0.8-2.3,1.3-3.5C177.1,50,177.7,43.7,177,37z M122.8,260.3c-2.8,4-4.8,8-5.9,12.1s-1.3,7.5-0.8,10.3s1.8,4.4,3.6,4.9
		c10.2,3.5,23.3,2.1,39.5-4.3c11.2-4.5,19.4-10.5,24.8-18c2.8-4,4.6-8.3,5.4-12.8s0.1-8.4-1.9-11.8c-7.7-10.5-17.3-19.1-28.8-25.8
		C145.6,229.7,133.6,244.8,122.8,260.3z"/>
	<path class="st0" d="M233,159c-9.5,10.8-16.3,22.6-20.3,35.3c-1.5,5.2-1.8,9.3-0.9,12.5s2.5,5,4.6,5.5c5.2,1.2,11.7,0.7,19.5-1.5
		c7.3-2,28.3-11.5,62.8-28.5s54.4-27.5,59.8-31.5c1.7-1.2,2.9-2.3,3.8-3.3c0.3-0.3,0.7-0.8,1-1.3s0.6-0.9,0.9-1.1s0.5-0.5,0.9-0.6
		c1-0.3,2.8,0.4,5.3,2.1s3.9,3.7,4.3,5.9c0.3,2.3-0.2,3.9-1.5,4.8c-0.5,0.3-1.3,0.6-2.3,0.8s-1.7,0.3-2,0.5
		c-0.8,0.3-17.5,8.9-50.1,25.8s-51.1,26-55.6,27.5c-4.3,1.7-8.9,3.1-13.6,4.4s-10.3,2.5-16.8,3.8s-12.1,1.5-17.1,0.8
		S207,218,205,215c-2.2-3.2-3.3-6.9-3.5-11.3s0.7-9.1,2.5-14.4s3.5-9.5,5-12.9s3.7-7.6,6.5-12.8s4.3-7.8,4.5-8l1.3-2.3
		c0.8-1.5,1.3-2.7,1.5-3.5c1.2-2.5,2-4,2.5-4.5c2.5-3,5.5-3.3,9.1-0.9s4.5,5.5,2.9,9.1C237.1,154.1,235.7,155.9,233,159z M275.3,88
		c0.7,2.5-0.5,5.5-3.5,9.1s-6.5,4.5-10.5,2.9c-3.2-1.5-4.5-4.8-3.9-10s2.3-8.7,5.1-10.5c3.8-2.7,7-3.2,9.4-1.5s3.2,4.3,2.4,7.8
		C274.8,86.5,275.1,87.2,275.3,88z"/>
	<path class="st0" d="M352.3,144.8c7.8,0.2,18.5-0.3,32-1.3c0.3-0.5,0.8-1.1,1.3-1.8c7.2-10.8,14.9-22.2,23.1-34
		s14.7-21.1,19.4-27.9c4.7-6.8,7.8-11.5,9.3-14.1c0.2,0,0.4-0.3,0.6-0.8s0.5-0.8,0.6-1c-0.3,0.3-0.8,0.6-1.3,0.8
		c-0.3,0.5-1.4,1.7-3.1,3.6s-3.4,3.1-4.9,3.6c-3,1-5.6-0.1-7.8-3.3c-2.2-3.2-2.3-6-0.5-8.5c1-1.2,3.9-2.9,8.8-5.3
		c8.2-3.7,14.5-7.3,19-11c2.2-1.7,4.1-3.4,5.8-5.3c0.2-0.2,0.3-0.4,0.5-0.8c0.2-0.3,0.3-0.6,0.5-0.8c1.2-1.2,3.1-1.3,5.8-0.4
		c2.7,0.9,4.6,2.5,5.8,4.9c0.5,0.7,0.6,1.7,0.4,3s-0.7,2.4-1.4,3.3c-0.7,0.7-1.5,1.3-2.5,1.8c-0.7,2-1.8,4.1-3.5,6.3
		c-3,4.5-5.8,8.3-8.5,11.3c-15.3,19-32.1,41.8-50.3,68.3c-1.5,2.3-3.1,4.7-4.8,7c5.7-0.5,9.7-0.8,12-1c23.3-1.7,39.5-3.1,48.5-4.3
		c3.8-0.3,6.3-0.7,7.5-1l6.8-1.3c2.7,0.2,5,1.7,6.9,4.5c1.9,2.8,2.1,5.3,0.6,7.5c-1.5,2-4.3,3.1-8.3,3.3c-0.8,0-2-0.2-3.6-0.5
		c-1.6-0.3-2.6-0.5-3.1-0.5c-7-0.7-16.8-0.7-29.5,0c-16,0.5-30.7,1.5-44,3c-9,14.2-17.3,28.4-25,42.6s-13.2,25.1-16.5,32.6
		s-4.8,11.3-4.3,11.3c8.3-0.2,30.2-6.8,65.5-19.9c35.3-13.1,66.4-25.1,93.1-36.1s48.1-20,64.1-27c4-1.7,8.4-3.9,13.3-6.8
		c1.5-0.8,3.5-2,5.9-3.6c2.4-1.6,4-2.5,4.9-2.9c3.8-2,7.7-2.6,11.6-1.8c3.9,0.8,5.5,2.8,4.9,5.8c-0.2,1.2-1.4,2.8-3.8,4.9
		c-2.3,2.1-4.9,3.9-7.8,5.4c-0.7,0.5-4.9,2.2-12.8,5c-7.7,2.8-37.3,14.4-88.8,34.8s-84.5,33.4-99,39.3c-6.5,2.5-13.8,5-22,7.5
		c-10.2,3.2-17.2,4.8-21,4.8c-6,0-10.7-2.5-14-7.5s-4-9.9-2-14.8c6.7-17,20.3-41,40.8-72c-6.8,0.8-13.2,1.8-19,3
		c-3.5,0.7-5.8,1.2-6.8,1.5c-3.2,0.8-5.2,1.3-6,1.3c-3.2,0.2-5.5-0.8-6.9-3s-1.6-4.4-0.6-6.8s3-3.9,6-4.8
		C345.3,144.9,347.9,144.8,352.3,144.8z"/>
	<path class="st0" d="M591.9,186.4c-1.9,4.8-2.8,8.4-2.6,10.9c0,1,0.5,2.3,1.5,3.8s2.5,3,4.4,4.6s4.7,3,8.3,4.1s7.5,1.8,11.9,2
		c7.8,0.2,15.3-0.5,22.4-2.1s12.6-3.3,16.6-5s9.4-4.4,16.3-7.9c14.8-7.5,28.7-15.3,41.6-23.3s21.8-13.8,26.6-17.5
		c2.5-2,4.6-3.8,6.3-5.3c0.5-0.5,1.2-1.3,2-2.4s1.4-1.7,1.8-1.9c1.3-1,3.4-0.9,6.3,0.4s4.6,3,5.3,5.4c0.3,0.8,0.3,1.9-0.3,3.3
		s-1.3,2.4-2.5,3.3c-0.5,0.5-1.5,1-3,1.6s-2.5,1-3,1.4s-3.3,2.1-8.3,5.3s-10.5,6.6-16.4,10.3s-13.4,8.1-22.5,13.3s-18,9.8-26.6,13.8
		c-12.3,6-27.1,10.3-44.3,13s-28.2,3.3-33,2c-9-2.5-15.2-7.3-18.5-14.5c-1.8-3.8-2.5-8.6-1.9-14.3s2.3-11.1,5.1-16.3
		c5.8-10,13.5-18.8,23.1-26.4s19.4-12,29.4-13.4c4.7-0.7,8,0.3,10.1,2.8s2.8,5.5,2,8.9s-2.5,6-5.1,7.9c-5,3.5-11.2,7.1-18.5,10.8
		c-2.8,1.5-6.7,3.1-11.5,4.8c-0.5,0.2-1.3,0.5-2.5,1s-1.9,0.8-2.3,0.9s-1,0.3-2.1,0.6s-1.8,0.4-2,0.3S605,172,604,172
		c-1.3-0.2-2.5-0.4-3.5-0.8C596.7,176.6,593.8,181.7,591.9,186.4z M639.5,144c-6.8-0.3-12.6,1.3-17.3,4.8c-3,2.2-5.8,4.6-8.5,7.3
		c0.2,0,0.3-0.1,0.5-0.3c7.3-1.8,16.1-5.8,26.3-11.8H639.5z"/>
	<path class="st0" d="M745,162.3c-0.5,0.7-0.9,1.3-1.3,1.8s-0.6,0.8-0.8,0.9s1.5,0.5,4.9,1.4s8.8,2.1,16.1,3.8s15.8,3.6,25.5,5.8
		c5.8,1.2,10.4,3.7,13.8,7.5c19.8-5.7,51.5-13,95.1-22.1c43.6-9.1,71.6-14.5,84.1-16.1c6.5-0.8,10.2-1.3,11-1.5l9.8-1.5
		c3.7,0,6.8,1.4,9.4,4.1c2.6,2.8,2.9,5.2,0.9,7.4c-1.8,2.2-5.6,3.4-11.3,3.8c-1.2,0-2.9-0.1-5.1-0.4s-3.8-0.4-4.6-0.4
		c-6.7-0.2-34.4,3.6-83.3,11.3c-48.8,7.7-76.9,12.6-84.3,14.8c-5.7,1.8-11.8,4.2-18.3,7c0,0.5,0.1,0.9,0.3,1.3
		c0.5,3.2-0.3,6.7-2.4,10.5c-2.1,3.8-4.7,7.2-7.9,10c-6.5,5.7-15.2,8.9-26,9.8c-8.3,0.8-12.5-0.5-12.5-4c0-0.3,0.1-0.6,0.3-0.8
		c0.7-3.7,2-7,3.9-9.9s4.3-5.4,7.1-7.5s5.2-3.7,7.1-4.8s4.4-2.3,7.5-3.6c3.1-1.3,4.7-2.1,4.9-2.3c0.8-0.3,1.8-0.8,2.8-1.3
		c-3.8-1.5-8.5-2.8-14-3.8c-1,0-2.4-0.2-4.3-0.5c-8.2-1.3-14.3-2.3-18.3-3s-8.2-1.7-12.5-3s-7.5-2.8-9.5-4.5c-1.3-1-2.3-2.6-2.8-4.9
		s-0.6-4.4-0.3-6.4c1-4.8,2.9-8.3,5.8-10.5c8-6.5,13.7-8.8,17-6.8c2.8,2,2.2,5.9-2,11.8c-1.3,1.7-2.8,3.3-4.5,5
		C746,161,745.5,161.6,745,162.3z M772.7,210.3c-0.8,0.7-1.5,1.3-2.1,2s-1.1,1.3-1.5,1.8s-0.8,1-1.1,1.4s-0.6,0.8-0.9,1.1
		s-0.5,0.6-0.6,0.8s-0.3,0.3-0.3,0.5L766,218c0.5-0.3,2.7-1.1,6.5-2.3s6.7-2.4,8.5-3.8c9.5-6.7,14.9-12.7,16.3-18
		C787.6,198.7,779.4,204.1,772.7,210.3z"/>
	<path class="st0" d="M998.6,186.4c-1.9,4.8-2.8,8.4-2.6,10.9c0,1,0.5,2.3,1.5,3.8s2.5,3,4.4,4.6c1.9,1.6,4.7,3,8.3,4.1
		c3.6,1.2,7.5,1.8,11.9,2c7.8,0.2,15.3-0.5,22.4-2.1c7.1-1.6,12.6-3.3,16.6-5s9.4-4.4,16.3-7.9c14.8-7.5,28.7-15.3,41.6-23.3
		c12.9-8,21.8-13.8,26.6-17.5c2.5-2,4.6-3.8,6.3-5.3c0.5-0.5,1.2-1.3,2-2.4c0.8-1.1,1.4-1.7,1.8-1.9c1.3-1,3.4-0.9,6.3,0.4
		c2.8,1.3,4.6,3,5.3,5.4c0.3,0.8,0.3,1.9-0.3,3.3s-1.3,2.4-2.5,3.3c-0.5,0.5-1.5,1-3,1.6s-2.5,1-3,1.4s-3.3,2.1-8.3,5.3
		s-10.5,6.6-16.4,10.3c-5.9,3.7-13.4,8.1-22.5,13.3c-9.1,5.2-18,9.8-26.6,13.8c-12.3,6-27.1,10.3-44.3,13c-17.2,2.7-28.2,3.3-33,2
		c-9-2.5-15.2-7.3-18.5-14.5c-1.8-3.8-2.5-8.6-1.9-14.3c0.6-5.7,2.3-11.1,5.1-16.3c5.8-10,13.5-18.8,23.1-26.4
		c9.6-7.6,19.4-12,29.4-13.4c4.7-0.7,8,0.3,10.1,2.8c2.1,2.5,2.8,5.5,2,8.9s-2.5,6-5.1,7.9c-5,3.5-11.2,7.1-18.5,10.8
		c-2.8,1.5-6.7,3.1-11.5,4.8c-0.5,0.2-1.3,0.5-2.5,1c-1.2,0.5-1.9,0.8-2.3,0.9c-0.3,0.1-1,0.3-2.1,0.6c-1.1,0.3-1.8,0.4-2,0.3
		s-0.9-0.3-1.9-0.3c-1.3-0.2-2.5-0.4-3.5-0.8C1003.4,176.6,1000.5,181.7,998.6,186.4z M1046.2,144c-6.8-0.3-12.6,1.3-17.3,4.8
		c-3,2.2-5.8,4.6-8.5,7.3c0.2,0,0.3-0.1,0.5-0.3c7.3-1.8,16.1-5.8,26.3-11.8H1046.2z"/>
	<path class="st0" d="M1151.1,186.4c-1.9,4.8-2.8,8.4-2.6,10.9c0,1,0.5,2.3,1.5,3.8s2.5,3,4.4,4.6c1.9,1.6,4.7,3,8.3,4.1
		c3.6,1.2,7.5,1.8,11.9,2c7.8,0.2,15.3-0.5,22.4-2.1c7.1-1.6,12.6-3.3,16.6-5s9.4-4.4,16.3-7.9c14.8-7.5,28.7-15.3,41.6-23.3
		c12.9-8,21.8-13.8,26.6-17.5c2.5-2,4.6-3.8,6.3-5.3c0.5-0.5,1.2-1.3,2-2.4c0.8-1.1,1.4-1.7,1.8-1.9c1.3-1,3.4-0.9,6.3,0.4
		c2.8,1.3,4.6,3,5.3,5.4c0.3,0.8,0.3,1.9-0.3,3.3s-1.3,2.4-2.5,3.3c-0.5,0.5-1.5,1-3,1.6s-2.5,1-3,1.4s-3.3,2.1-8.3,5.3
		s-10.5,6.6-16.4,10.3c-5.9,3.7-13.4,8.1-22.5,13.3c-9.1,5.2-18,9.8-26.6,13.8c-12.3,6-27.1,10.3-44.3,13c-17.2,2.7-28.2,3.3-33,2
		c-9-2.5-15.2-7.3-18.5-14.5c-1.8-3.8-2.5-8.6-1.9-14.3c0.6-5.7,2.3-11.1,5.1-16.3c5.8-10,13.5-18.8,23.1-26.4
		c9.6-7.6,19.4-12,29.4-13.4c4.7-0.7,8,0.3,10.1,2.8c2.1,2.5,2.8,5.5,2,8.9s-2.5,6-5.1,7.9c-5,3.5-11.2,7.1-18.5,10.8
		c-2.8,1.5-6.7,3.1-11.5,4.8c-0.5,0.2-1.3,0.5-2.5,1c-1.2,0.5-1.9,0.8-2.3,0.9c-0.3,0.1-1,0.3-2.1,0.6c-1.1,0.3-1.8,0.4-2,0.3
		s-0.9-0.3-1.9-0.3c-1.3-0.2-2.5-0.4-3.5-0.8C1155.9,176.6,1153,181.7,1151.1,186.4z M1198.7,144c-6.8-0.3-12.6,1.3-17.3,4.8
		c-3,2.2-5.8,4.6-8.5,7.3c0.2,0,0.3-0.1,0.5-0.3c7.3-1.8,16.1-5.8,26.3-11.8H1198.7z"/>
	<path class="st0" d="M1317.7,159c-9.5,10.8-16.3,22.6-20.3,35.3c-1.5,5.2-1.8,9.3-0.9,12.5c0.9,3.2,2.5,5,4.6,5.5
		c5.2,1.2,11.7,0.7,19.5-1.5c7.3-2,28.3-11.5,62.8-28.5s54.4-27.5,59.8-31.5c1.7-1.2,2.9-2.3,3.8-3.3c0.3-0.3,0.7-0.8,1-1.3
		c0.3-0.5,0.6-0.9,0.9-1.1s0.5-0.5,0.9-0.6c1-0.3,2.8,0.4,5.3,2.1s3.9,3.7,4.3,5.9c0.3,2.3-0.2,3.9-1.5,4.8
		c-0.5,0.3-1.3,0.6-2.3,0.8s-1.7,0.3-2,0.5c-0.8,0.3-17.5,8.9-50.1,25.8c-32.6,16.8-51.1,26-55.6,27.5c-4.3,1.7-8.9,3.1-13.6,4.4
		s-10.3,2.5-16.8,3.8c-6.4,1.3-12.1,1.5-17.1,0.8s-8.5-2.6-10.5-5.6c-2.2-3.2-3.3-6.9-3.5-11.3c-0.2-4.3,0.7-9.1,2.5-14.4
		c1.8-5.3,3.5-9.5,5-12.9s3.7-7.6,6.5-12.8c2.8-5.2,4.3-7.8,4.5-8l1.3-2.3c0.8-1.5,1.3-2.7,1.5-3.5c1.2-2.5,2-4,2.5-4.5
		c2.5-3,5.5-3.3,9.1-0.9c3.6,2.4,4.5,5.5,2.9,9.1C1321.8,154.1,1320.4,155.9,1317.7,159z M1360,88c0.7,2.5-0.5,5.5-3.5,9.1
		s-6.5,4.5-10.5,2.9c-3.2-1.5-4.5-4.8-3.9-10c0.6-5.2,2.3-8.7,5.1-10.5c3.8-2.7,7-3.2,9.4-1.5c2.4,1.7,3.2,4.3,2.4,7.8
		C1359.5,86.5,1359.8,87.2,1360,88z"/>
	<path class="st0" d="M1469.2,159.5c-3.5,6.2-6.3,12.2-8.3,18c-2.3,6.2-2.8,11.7-1.5,16.5c1.3,5.2,5.1,6.2,11.3,3
		c1.7-0.8,4.9-2.5,9.8-5.1c4.8-2.6,8.3-4.4,10.5-5.5l9.5-4.8c4.2-2.1,7.5-3.7,9.9-4.8c2.4-1.1,5.2-2.3,8.3-3.6
		c3.1-1.3,5.8-2.3,8-2.9s4.3-1,6.1-1.4c3.8-0.3,8.9,1.1,15.1,4.3s11.6,7.4,16.1,12.8c2.5,2.7,7,3.7,13.6,3.1
		c6.6-0.6,13.5-2.5,20.6-5.9c21.7-10.3,40.8-21,57.3-32c3-2,5.1-3.4,6.3-4.3c3.5-2.7,5.3-4.1,5.5-4.3c2.2-0.8,4.7-0.4,7.5,1.4
		c2.8,1.8,4,4,3.5,6.6c0,0.8-0.5,1.9-1.5,3.1s-2.2,2.2-3.5,2.9c-0.7,0.3-1.8,0.7-3.3,1s-2.5,0.7-3,1c-1.2,0.5-3.9,1.9-8.1,4.3
		s-10.1,5.5-17.6,9.6s-14.6,7.8-21.3,11.1c-0.8,0.5-3.6,2-8.4,4.6s-8.1,4.3-10,5.1c-1.9,0.8-4.6,1.9-8.1,3.3s-6.6,2.2-9.3,2.5
		c-4.7,0.5-9,0.4-12.9-0.4c-3.9-0.8-7-2-9.4-3.6c-2.3-1.7-4-3-5.1-4.1c-1.1-1.1-2-2.2-2.6-3.4c-1.8-2.8-4.8-5.3-9-7.3
		c-4.2-2-9.6-2.7-16.3-2c-1.5,0.2-3.1,0.5-4.8,0.9c-1.7,0.4-3.1,0.8-4.4,1.3s-2.8,1-4.8,1.9c-1.9,0.8-3.4,1.5-4.5,2
		c-1.1,0.5-2.7,1.4-4.9,2.6c-2.2,1.3-3.7,2.1-4.6,2.6c-0.9,0.5-2.6,1.5-5,2.9c-2.4,1.4-4,2.3-4.6,2.6c-5.8,3.5-11.5,6-17.1,7.6
		c-5.6,1.6-10.7,1.9-15.4,0.9c-4.7-1-7.8-3.6-9.3-7.8c-1-2.8-1.5-5.7-1.6-8.6c-0.1-2.9,0.2-5.8,0.9-8.6c0.7-2.8,1.3-5.3,2-7.4
		c0.7-2.1,1.5-4.4,2.5-6.9l2-5c0-0.2,0.3-1.2,1-3.1c0.7-1.9,1.2-3.4,1.5-4.4c1-3.3,1.7-5.5,2-6.5c1.3-3,3.3-4.7,5.9-5.1
		c2.6-0.4,4.7,0.4,6.4,2.5c1.7,2.1,2.1,4.9,1.3,8.4C1473.2,152.3,1471.7,155,1469.2,159.5z"/>
	<path class="st0" d="M1657.7,172.3c-11,8.7-20,17.8-27,27.3c-0.7,1-1.3,1.8-1.8,2.3c1-0.7,2.3-1.3,4-1.8
		c5.3-1.8,12.5-5.7,21.5-11.5c5.5-3.5,12.3-8.6,20.5-15.3c8.2-6.7,14.8-11.7,19.8-15s8.8-4.5,11.3-3.5c3.5,1.3,5.5,6,6,14.1
		s0,16.5-1.4,25.3c-1.4,8.8-3.1,16.2-5.1,22.4c-2,6-4.5,12.6-7.5,19.8c2.2-1.8,5.9-5,11.3-9.4c5.3-4.4,9-7.5,11-9.1s5.1-4.2,9.4-7.5
		s7.7-5.9,10.3-7.8c2.6-1.8,5.8-4,9.5-6.4s7.5-4.7,11.4-6.9c5-2.8,10-5.6,15.1-8.3c5.1-2.7,10-5.1,14.6-7.4
		c4.7-2.3,8.6-4.1,11.9-5.6s6.8-3.1,10.8-4.9c3.9-1.8,6.4-2.9,7.4-3.4c3-1.5,10.5-4.8,22.5-10c9-4,14.1-6.1,15.3-6.3
		c3.3-0.7,5.7,0.4,7,3.1c1.3,2.8,1.6,5.1,0.8,7.1c-1,2.3-2.9,4-5.8,5c-1.2,0.3-3.6,1-7.3,1.9c-3.7,0.9-6.7,1.8-9,2.6
		c-9.8,3.3-26.8,11-50.9,23c-24.1,12-44.6,24-61.6,36c-12.3,9-26.3,20.1-41.8,33.3c-3,6.7-8.3,17.8-15.8,33.3s-14.7,29.3-21.5,41.5
		c-0.7,1.2-1.9,3.6-3.8,7.4c-1.8,3.8-3.4,6.9-4.8,9.4c-1.3,2.5-3.2,5.3-5.6,8.4c-2.4,3.1-5,5.5-7.6,7.4c-2.2,1.5-5,1.2-8.6-1
		c-3.6-2.2-6.7-5.6-9.4-10.3c-2.7-4.7-4.1-9.4-4.3-14.3c0-7,3.8-15.4,11.5-25.3c14.5-18.7,35.4-39.7,62.8-63c5.7-13,10.7-25.7,15-38
		c1.3-3.8,3.2-14.3,5.5-31.3c1.3-9.3,2-14.3,2-15c-0.3,0.3-0.9,0.8-1.6,1.4s-1.8,1.3-3,2.1s-2.3,1.6-3.1,2.3c-0.8,0.5-2,1.3-3.5,2.5
		c-26.7,19.3-46.3,31.7-59,37c-4,1.8-7.9,1.8-11.8-0.3c-3.8-2-5.7-4.8-5.5-8.3l0.5-2c0.2-0.7,0.4-1.4,0.8-2.1c0.3-0.8,0.6-1.4,0.9-2
		s0.7-1.3,1.4-2.1c0.7-0.8,1.1-1.4,1.4-1.8l1.5-2c0.8-1,1.2-1.6,1.4-1.8c3.2-4.3,7.1-8.9,11.8-13.8c4.8-5.2,10.8-10.8,18-17
		c0.8-0.7,2-1.7,3.6-3.1c1.6-1.4,2.7-2.4,3.4-3c0.7-0.6,1.6-1.4,2.9-2.4s2.3-1.8,3.1-2.4c0.8-0.6,1.8-1.2,2.9-1.9
		c1.1-0.7,2.2-1.3,3.4-2c5.5-2.8,10.3-4.8,14.3-5.9s6.7-1.3,8.1-0.5c1.4,0.8,2,2,1.8,3.6s-1.9,4-5,6.9c-3.1,2.9-7.2,5.9-12.4,8.9
		C1674.9,159.1,1667.1,164.8,1657.7,172.3z M1649,292.8c-14.7,14.2-23.8,25.9-27.5,35.3c-1.7,4.2-2.5,8.1-2.6,11.9
		c-0.1,3.8,0.2,6.5,0.9,8.4c0.7,1.8,1.5,3.3,2.5,4.4s3.6-1.1,7.8-6.6c4.2-5.5,10.1-14.9,17.8-28.3c7.7-13.3,16-29.2,25-47.5
		C1664.4,277.8,1656.5,285.3,1649,292.8z"/>
</g>
</svg>
