<?xml version="1.0" encoding="utf-8"?>
<!-- Generator: Adobe Illustrator 19.2.1, SVG Export Plug-In . SVG Version: 6.00 Build 0)  -->
<svg version="1.1" id="レイヤー_2" xmlns="http://www.w3.org/2000/svg" xmlns:xlink="http://www.w3.org/1999/xlink" x="0px"
	 y="0px" viewBox="0 0 16 15.6" style="enable-background:new 0 0 16 15.6;" xml:space="preserve">
<style type="text/css">
	.st0{fill:#fff;}
</style>
<path class="st0" d="M15.9,7.8C16.1,7.9,16,8,15.8,8h-1.5c-0.2,0-0.4,0.2-0.4,0.4v6.9c0,0.2-0.2,0.4-0.4,0.4h-3.3
	c-0.2,0-0.4-0.2-0.4-0.4V9.9c0-0.2-0.2-0.4-0.4-0.4H6.5c-0.2,0-0.4,0.2-0.4,0.4v5.4c0,0.2-0.2,0.4-0.4,0.4H2.5
	c-0.2,0-0.4-0.2-0.4-0.4V8.4C2.1,8.2,1.9,8,1.7,8H0.2C0,8-0.1,7.9,0.1,7.8l7.7-7.7C7.9,0,8.1,0,8.3,0.1L15.9,7.8z"/>
</svg>
