<?xml version="1.0" encoding="utf-8"?>
<!-- Generator: Adobe Illustrator 19.2.1, SVG Export Plug-In . SVG Version: 6.00 Build 0)  -->
<svg version="1.1" id="Layer_1" xmlns="http://www.w3.org/2000/svg" xmlns:xlink="http://www.w3.org/1999/xlink" x="0px" y="0px"
	 viewBox="0 0 77 17.2" style="enable-background:new 0 0 77 17.2;" xml:space="preserve">
<style type="text/css">
	.st0{fill:#fff;}
</style>
<g>
	<path class="st0" d="M39.6,5.5C39.1,5.1,38.5,5,37.7,5c-0.8,0-1.5,0.2-2,0.5c-0.5,0.3-0.9,0.8-1.1,1.5c-0.2,0.7-0.4,1.6-0.4,2.8
		v1.6c0,1.1,0.1,2.1,0.3,2.8c0.2,0.7,0.6,1.2,1,1.5c0.5,0.3,1.2,0.5,2,0.5c0.8,0,1.5-0.2,2-0.5c0.5-0.3,0.8-0.8,1.1-1.5
		c0.2-0.7,0.3-1.6,0.3-2.8V9.8c0-1.2-0.1-2.1-0.3-2.8C40.5,6.3,40.1,5.8,39.6,5.5z M38.6,12.2c0,0.8-0.1,1.4-0.2,1.7
		c-0.1,0.4-0.4,0.5-0.7,0.5c-0.3,0-0.6-0.2-0.7-0.5c-0.1-0.4-0.2-0.9-0.2-1.7V8.9c0-0.8,0.1-1.3,0.2-1.7c0.1-0.4,0.4-0.5,0.7-0.5
		c0.3,0,0.6,0.2,0.7,0.5c0.1,0.4,0.2,0.9,0.2,1.7V12.2z"/>
	<path class="st0" d="M77,11.4V9.5c0-1.1-0.1-2-0.3-2.7c-0.2-0.6-0.5-1.1-0.9-1.4C75.3,5.1,74.7,5,73.9,5c-1.2,0-2.1,0.4-2.6,1.1
		c-0.5,0.7-0.7,1.9-0.7,3.5v1.9c0,1.6,0.2,2.7,0.7,3.5c0.5,0.7,1.3,1.1,2.5,1.1c1,0,1.8-0.2,2.3-0.7s0.8-1.2,0.8-2.2
		c0-0.2,0-0.3,0-0.4l-2.1-0.1c0,0.7-0.1,1.1-0.2,1.4c-0.1,0.3-0.4,0.4-0.7,0.4c-0.3,0-0.5-0.1-0.6-0.2c-0.1-0.2-0.2-0.4-0.3-0.8
		c0-0.3-0.1-0.9-0.1-1.6v-0.5H77z M72.9,9.2c0-0.7,0-1.2,0.1-1.6c0-0.3,0.1-0.6,0.2-0.7c0.1-0.2,0.3-0.2,0.6-0.2
		c0.3,0,0.4,0.1,0.6,0.2c0.1,0.1,0.2,0.4,0.3,0.8c0,0.4,0.1,0.9,0.1,1.6v0.8h-1.8V9.2z"/>
	<path class="st0" d="M32.5,1.2l-1,4.5C31.2,7.1,31.1,8,31,8.6h-0.1c-0.1-0.8-0.3-1.7-0.5-2.8l-1-4.5H27l2.8,10V16h2.4v-4.8l2.8-10
		H32.5z"/>
	<path class="st0" d="M46.4,13.7c-0.1,0.2-0.2,0.4-0.4,0.5c-0.2,0.1-0.4,0.2-0.6,0.2c-0.2,0-0.4-0.1-0.5-0.3c-0.1-0.2-0.2-0.5-0.2-1
		V5.2h-2.4v8c0,1,0.2,1.7,0.5,2.2c0.3,0.5,0.9,0.7,1.6,0.7c1,0,1.8-0.5,2.3-1.5h0.1l0.2,1.3h1.9V5.2h-2.4V13.7z"/>
	<path class="st0" d="M58.8,13.7c-0.1,0.2-0.2,0.4-0.4,0.5c-0.2,0.1-0.4,0.2-0.6,0.2c-0.2,0-0.4-0.1-0.5-0.3c-0.1-0.2-0.2-0.5-0.2-1
		V5.2h-2.4v8c0,1,0.2,1.7,0.5,2.2c0.3,0.5,0.9,0.7,1.6,0.7c1,0,1.8-0.5,2.3-1.5h0.1l0.2,1.3h1.9V5.2h-2.4V13.7z"/>
	<polygon class="st0" points="55.4,1.2 48.2,1.2 48.2,3.2 50.6,3.2 50.6,16 53,16 53,3.2 55.4,3.2 	"/>
	<path class="st0" d="M68.6,5.4C68.2,5.1,67.8,5,67.2,5c-0.4,0-0.9,0.1-1.2,0.4c-0.4,0.3-0.7,0.6-0.9,1h0l0-5.7h-2.3V16h2l0.2-1H65
		c0.2,0.4,0.5,0.6,0.8,0.9c0.4,0.2,0.8,0.3,1.2,0.3c0.8,0,1.4-0.4,1.8-1.1c0.4-0.8,0.6-1.9,0.6-3.5V9.7c0-1.2-0.1-2.1-0.2-2.8
		C69.1,6.2,68.9,5.7,68.6,5.4z M67.1,11.3c0,0.8,0,1.4-0.1,1.8c-0.1,0.4-0.2,0.8-0.3,0.9c-0.2,0.2-0.4,0.3-0.6,0.3
		c-0.2,0-0.4,0-0.6-0.1c-0.2-0.1-0.3-0.2-0.4-0.4V7.7c0.1-0.3,0.2-0.5,0.4-0.7c0.2-0.2,0.4-0.3,0.6-0.3c0.2,0,0.4,0.1,0.6,0.3
		c0.1,0.2,0.2,0.5,0.3,1s0.1,1.1,0.1,1.9V11.3z"/>
	<path class="st0" d="M21.9,0.5C20,0,12.3,0,12.3,0S4.6,0,2.7,0.5C1.6,0.8,0.8,1.6,0.5,2.7C0,4.6,0,8.6,0,8.6s0,4,0.5,5.9
		c0.3,1.1,1.1,1.9,2.2,2.2c1.9,0.5,9.6,0.5,9.6,0.5s7.7,0,9.6-0.5c1.1-0.3,1.9-1.1,2.2-2.2c0.5-1.9,0.5-5.9,0.5-5.9s0-4-0.5-5.9
		C23.8,1.6,22.9,0.8,21.9,0.5z M9.8,12.3V4.9l6.4,3.7L9.8,12.3z"/>
</g>
</svg>
