<?xml version="1.0" encoding="utf-8"?>
<svg version="1.1" id="" xmlns="http://www.w3.org/2000/svg" xmlns:xlink="http://www.w3.org/1999/xlink" x="0px"
	 y="0px" viewBox="0 0 142.5 142.5" style="enable-background:new 0 0 142.5 142.5;" xml:space="preserve">
<style type="text/css">
	.st0{fill:#3e457c;}
</style>
<g>
	<path class="st0" d="M70.5,21.5c-4.1,0.1-6-1.3-6-1.3l-0.1-4.8l0.3,0c0.3,3,1.5,5.9,5.7,5.8c3.8-0.1,4.2-4.3,1.3-6.3l-4.2-2.6
		c-2.4-1.5-4.7-3.8-2.8-6.8c0,0,1.2-2,4.7-2c3.6-0.1,5.7,1.1,5.7,1.1l0.1,4.2l-0.3,0c-0.3-2.4-1.3-5-5.5-5c-2.7,0-4.7,3.6-0.9,5.9
		l4.2,2.7c3.4,2.1,4,4.9,2.7,7C75.4,19.3,74.4,21.4,70.5,21.5z"/>
	<path class="st0" d="M85.5,23.3l-4.1-1l0.1-0.3c1,0,1.1-0.5,1.5-1.7l1.7-6.7c0.2-0.8,0.1-1.2-0.8-1.8l0.1-0.3l3.5,0.1l-2.3,9.2
		c-0.3,1.4-0.3,1.8,0.5,2.2L85.5,23.3z M85.6,7.7c0.2-0.7,0.8-1.1,1.5-0.9c0.7,0.2,1.1,0.8,0.9,1.5C88,9,87.3,9.4,86.6,9.2
		C85.9,9.1,85.5,8.4,85.6,7.7z"/>
	<path class="st0" d="M97.1,26c-0.8,0.8-2.3,1.3-3.6,0.7c-1.6-0.8-2.3-2-1-4.7l3.3-6.9l-1.1-0.6l0.1-0.3l1.2,0.6l1.5-3.2l2.1,0.6
		L98,15.8l2.7,1.3l-0.2,0.3l-2.6-1.3l-3.3,6.8c-0.9,1.8-0.5,2.7,0.5,3.2c0.7,0.3,1.4,0.1,1.8-0.3L97.1,26z"/>
	<path class="st0" d="M109.3,34.1c-1,0.7-3.3,1.3-5.6-0.6c-2.4-2-2.4-5.5-0.2-8c2.4-2.8,5.8-3.1,8.1-1.1c2.2,1.9,2.5,4.6,0,7.6
		l-6.1-5.2c-2.1,2.6-1.9,4.6-0.5,6.1c1,1.1,3,1.5,4.1,0.9L109.3,34.1z M110.2,30.4c2.4-2.8,2.1-4.9,1.2-5.7
		c-1.1-0.9-3.6-0.5-5.6,1.9L110.2,30.4z"/>
	<path class="st0" d="M113.1,44.3c-1.7-2.5-1.6-4.2-1.6-4.2l2.8-1.9l0.2,0.3c-1.3,1-3,2.9-1.2,5.6c1.5,2.2,3.5,0.5,3.5-1.8l-0.1-2.9
		c0-2.9,1-4.2,3-4.3c0,0,1.6-0.2,3,2c1.6,2.4,1.6,3.8,1.6,3.8l-2.6,1.7l-0.2-0.3c1.1-1,2.5-2.7,0.9-5.1c-1.3-2-3.4-0.8-3.3,1.7
		l0.1,3c0.1,2.6-1.2,4.4-3.3,4.3C115.9,46.3,114.4,46.3,113.1,44.3z"/>
	<path class="st0" d="M123.3,60.3c-1.2,0.1-3.5-0.7-4.4-3.5c-0.9-3,0.9-5.9,4.1-6.8c3.5-1.1,6.5,0.5,7.4,3.4
		c0.8,2.8-0.3,5.2-4.1,6.4l-2.3-7.7c-3.2,1.1-4.1,2.9-3.7,4.9c0.3,1.5,1.7,2.9,3,3L123.3,60.3z M126,57.7c3.5-1.1,4.4-3,4.1-4.2
		c-0.4-1.4-2.8-2.3-5.8-1.4L126,57.7z"/>
	<path class="st0" d="M124.1,76.2c-1.2-0.3-3.1-1.7-3.1-4.7c0.1-3.1,2.7-5.3,6-5.3c3.7,0.1,6.1,2.5,6,5.5c0,2.9-1.9,4.9-5.9,4.8
		l0.1-8c-3.4,0-4.8,1.5-5,3.5c-0.2,1.5,0.7,3.3,1.9,3.8L124.1,76.2z M127.5,74.5c3.6,0.1,5.2-1.5,5.2-2.7c0-1.4-1.9-3.1-5.1-3.1
		L127.5,74.5z"/>
	<path class="st0" d="M119.2,85.6l1-4.1l0.3,0.1c0,1,0.5,1.1,1.7,1.5l6.7,1.7c0.8,0.2,1.2,0.1,1.8-0.8L131,84l-0.1,3.5l-9.2-2.3
		c-1.4-0.3-1.8-0.3-2.2,0.5L119.2,85.6z M134.8,85.8c0.7,0.2,1.1,0.8,0.9,1.5c-0.2,0.7-0.8,1.1-1.5,0.9c-0.7-0.2-1.1-0.9-0.9-1.5
		C133.4,86,134.1,85.6,134.8,85.8z"/>
	<path class="st0" d="M112.6,100l2-3.7l0.3,0.1c-0.2,1,0.2,1.2,1.3,1.8l4.7,2.6c1.5,0.8,2.9,0.6,3.7-0.9c0.6-1.1,0-2.7-0.7-3.3
		l-5.3-2.9c-1.2-0.7-1.6-0.7-2.2,0l-0.3-0.2l2-3.7l0.3,0.2c-0.2,1,0.2,1.2,1.3,1.8l6.1,3.3c0.8,0.4,1.2,0.4,1.9-0.4l0.3,0.1l-1,3.4
		l-2.3-1.2c1,1.2,1.2,3.2,0.5,4.6c-1,1.8-2.5,2.6-5.2,1.1l-4.8-2.6c-1.2-0.7-1.7-0.7-2.3-0.1L112.6,100z"/>
	<path class="st0" d="M109.3,118.1c0.3,0,0.6,0.2,0.7,0.4c0.1,0.2,0.6-0.4,0.5-1.2c-0.9,0-1.7-0.5-2.4-1.1c-1.4-1.5-1.4-4,0.8-6
		c0.7-0.7,1.4-1.1,2-1.3c0.7-1-0.2-3.7-2.3-1.7l-2.2,2.1c-1.3,1.2-3.4,3.3-5.3,0.7c0,0-1.3-1.5-0.4-4.3c1.2-3.8,4.3-6.2,6.3-5.5
		c1.8,0.6,2.3,2.7,1.8,4.5c0.8-0.2,1.5,0,2.1,0.6c0,0,1.5,1.5,0.3,3.5c1.4-0.5,2.8,0.1,3.7,1c1.4,1.5,1.3,4-0.8,6
		c-1.1,1-2.3,1.6-3.4,1.6c0.2,1.2-0.3,2.1-0.7,2.6c-0.3,0.3-0.7,0.5-1.1,0.5c-0.6-0.1-1-0.7-1-1.3
		C108.1,118.4,108.7,118,109.3,118.1z M101,105.6c-0.6,2.2,0.6,3.2,0.6,3.2s1,0.9,2.5-0.6l2.5-2.4c0.2-0.2,0.9-0.9,1.8-1.2
		c0.6-2.8-2.3-3-2.2-3C104.4,101.4,101.7,103.1,101,105.6z M113.9,115.5c0.9-0.9,1.3-2.2-0.6-4.3s-3.4-1.6-4.2-0.8
		c-0.8,0.8-1.3,2.3,0.6,4.3S113.2,116.2,113.9,115.5z"/>
	<path class="st0" d="M73,121c4.1-0.1,6,1.2,6,1.2l0.2,4.8l-0.3,0c-0.4-3-1.6-5.8-5.8-5.7c-3.8,0.1-4.2,4.4-1.2,6.3l4.2,2.5
		c2.4,1.5,4.8,3.7,3,6.7c0,0-1.2,2-4.6,2.1c-3.6,0.1-5.8-1-5.8-1l-0.1-4.2l0.3,0c0.3,2.4,1.4,5,5.5,4.9c2.7-0.1,4.6-3.6,0.8-6
		l-4.2-2.6c-3.4-2.1-4.1-4.8-2.8-6.9C68.1,123.2,69.1,121.1,73,121z"/>
	<path class="st0" d="M58.2,135.1c-0.2,0.7-0.8,1.1-1.5,1c-0.7-0.2-1.1-0.8-1-1.5c0.2-0.7,0.8-1.1,1.5-1
		C57.9,133.7,58.3,134.4,58.2,135.1z M58,119.5l4.1,0.9l-0.1,0.3c-1,0.1-1.1,0.5-1.4,1.7l-1.5,6.8c-0.2,0.9-0.1,1.2,0.9,1.7
		l-0.1,0.3l-3.5-0.1l2.1-9.2c0.3-1.4,0.3-1.8-0.6-2.2L58,119.5z"/>
	<path class="st0" d="M46.4,117c0.8-0.9,2.2-1.3,3.6-0.7c1.7,0.8,2.3,1.9,1.1,4.7l-3.2,6.9l1.2,0.5l-0.1,0.3l-1.2-0.6l-1.5,3.2
		l-2.1-0.6l1.6-3.5L43,126l0.2-0.3l2.6,1.2l3.1-6.9c0.8-1.8,0.5-2.7-0.6-3.2c-0.7-0.3-1.4-0.1-1.8,0.3L46.4,117z"/>
	<path class="st0" d="M34,109.1c1-0.7,3.3-1.4,5.6,0.5c2.4,2,2.5,5.4,0.4,8c-2.4,2.9-5.7,3.2-8.1,1.2c-2.2-1.8-2.6-4.5-0.1-7.6
		l6.2,5.1c2.1-2.7,1.8-4.7,0.4-6.1c-1.1-1.1-3-1.5-4.1-0.8L34,109.1z M33.2,112.8c-2.3,2.8-2,5-1.1,5.8c1.1,0.9,3.6,0.4,5.6-2
		L33.2,112.8z"/>
	<path class="st0" d="M29.9,99c1.7,2.5,1.6,4.2,1.6,4.2l-2.8,1.9l-0.2-0.3c1.3-1.1,2.9-3,1.1-5.6c-1.5-2.2-3.5-0.4-3.5,1.9l0.2,2.9
		c0,2.9-0.9,4.2-2.9,4.3c0,0-1.6,0.2-3-1.9c-1.6-2.4-1.6-3.8-1.6-3.8l2.5-1.7l0.2,0.2c-1.1,1-2.4,2.7-0.8,5.1c1.3,2,3.4,0.8,3.3-1.8
		l-0.1-3c-0.1-2.6,1.1-4.4,3.2-4.4C27.1,97.1,28.6,97.1,29.9,99z"/>
	<path class="st0" d="M19.5,83.2c1.2-0.1,3.5,0.6,4.4,3.4c1,3-0.8,5.9-4,6.9c-3.5,1.1-6.5-0.3-7.5-3.3c-0.9-2.8,0.2-5.2,4-6.4
		l2.5,7.6c3.2-1.1,4-3,3.6-4.9c-0.3-1.5-1.8-2.9-3.1-2.9L19.5,83.2z M16.8,85.9c-3.5,1.1-4.4,3.1-4,4.3c0.4,1.4,2.8,2.3,5.8,1.3
		L16.8,85.9z"/>
	<path class="st0" d="M18.2,67.3c1.2,0.3,3.2,1.6,3.2,4.5c0.1,3.1-2.5,5.4-5.8,5.4C12,77.4,9.5,75.1,9.5,72c0-2.9,1.8-4.9,5.7-5
		l0.1,8c3.4-0.2,4.7-1.7,4.9-3.7c0.1-1.5-0.8-3.3-2.1-3.7L18.2,67.3z M14.9,69.2c-3.6,0.1-5.1,1.7-5.1,2.9c0,1.4,2,3,5.2,2.9
		L14.9,69.2z"/>
	<path class="st0" d="M7.5,58c-0.7-0.2-1.1-0.8-1-1.5c0.2-0.7,0.8-1.1,1.5-1c0.7,0.2,1.1,0.8,1,1.5C8.8,57.8,8.2,58.2,7.5,58z
		 M23,57.9L22.1,62l-0.3-0.1c-0.1-1-0.5-1.1-1.7-1.4l-6.7-1.6c-0.9-0.2-1.2-0.1-1.7,0.9l-0.3-0.1l0.1-3.5l9.2,2.1
		c1.4,0.3,1.8,0.3,2.2-0.5L23,57.9z"/>
	<path class="st0" d="M29.4,43.3l-1.9,3.7l-0.3-0.1c0.2-1-0.2-1.2-1.3-1.8l-4.8-2.5c-1.5-0.8-2.9-0.5-3.7,1c-0.6,1.2,0,2.7,0.7,3.3
		l5.4,2.8c1.2,0.6,1.6,0.7,2.2,0l0.3,0.1l-1.9,3.7l-0.3-0.1c0.2-1-0.2-1.2-1.3-1.8l-6.2-3.2c-0.8-0.4-1.2-0.4-1.9,0.4l-0.3-0.1
		l0.9-3.4l2.3,1.2c-1-1.1-1.3-3.2-0.6-4.6c0.9-1.8,2.4-2.6,5.1-1.2l4.8,2.5c1.2,0.6,1.7,0.7,2.3,0L29.4,43.3z"/>
	<path class="st0" d="M32.3,25.2c-0.3,0-0.6-0.2-0.7-0.4c-0.1-0.2-0.6,0.4-0.4,1.2c0.9,0,1.7,0.5,2.4,1.1c1.4,1.4,1.4,4-0.6,6
		c-0.7,0.7-1.3,1.1-2,1.4c-0.7,1,0.2,3.7,2.3,1.6l2.1-2.1c1.2-1.2,3.3-3.4,5.3-0.8c0,0,1.3,1.4,0.5,4.3c-1.1,3.8-4.1,6.3-6.2,5.6
		c-1.9-0.6-2.4-2.6-1.8-4.5c-0.8,0.3-1.5,0.1-2.2-0.6c0,0-1.5-1.4-0.4-3.5c-1.3,0.5-2.8,0-3.7-0.9c-1.4-1.4-1.4-4,0.6-6
		c1.1-1.1,2.3-1.6,3.4-1.7c-0.2-1.2,0.2-2.1,0.6-2.6c0.3-0.3,0.7-0.5,1.1-0.5c0.6,0.1,1.1,0.6,1,1.3C33.5,24.8,32.9,25.3,32.3,25.2z
		 M27.7,27.9c-0.9,0.9-1.3,2.3,0.7,4.2c2,2,3.5,1.5,4.3,0.7c0.8-0.8,1.3-2.3-0.7-4.3C30,26.6,28.5,27.1,27.7,27.9z M40.8,37.5
		c0.5-2.2-0.7-3.2-0.7-3.2s-1-0.8-2.5,0.7l-2.5,2.4c-0.2,0.2-0.9,0.9-1.7,1.3c-0.6,2.8,2.3,3,2.3,3C37.5,41.8,40.2,40,40.8,37.5z"/>
</g>
</svg>
