<?xml version="1.0" encoding="utf-8"?>
<svg version="1.1" id="レイヤー_1" xmlns="http://www.w3.org/2000/svg" xmlns:xlink="http://www.w3.org/1999/xlink" x="0px"
	 y="0px" viewBox="0 0 142.5 142.5" style="enable-background:new 0 0 142.5 142.5;" xml:space="preserve">
<style type="text/css">
	.st0{fill:#8a8233;}
</style>
<g>
	<path class="st0" d="M80.2,21.4l-5.7-0.1l0-0.3c1.4,0,1.1-1.4,0.6-2.8L74.2,16l-6.5-0.1c-0.7,2-1.9,5.1,1.6,5l0,0.3l-5.6-0.1l0-0.3
		c1,0,1.6-0.1,3.8-5.8L72,3.7l0.3,0c2.9,7.4,5.9,15.3,5.9,15.3c0.8,2,1.3,2,2,2.1L80.2,21.4z M74.1,15.6L71,7.3l-3.2,8.2L74.1,15.6z
		"/>
	<path class="st0" d="M91.7,22c-0.6,1.1-2.4,2.7-5.4,1.8c-2.7-0.8-4.5-3.8-3.5-7.3c0.9-2.9,3.9-5.1,7.6-4c2.3,0.7,2.7,2,2.8,2.5
		c0.1,0.4,0,0.9-0.3,1.2c-0.5,0.4-1.2,0.4-1.7-0.1c-0.5-0.5-0.4-1.2,0.1-1.6c0.3-0.2,0.6-0.3,0.8-0.3c0.2,0-0.2-0.8-1.8-1.3
		c-1-0.3-3.8-0.4-5.2,4.1c-1,3.2,0.4,5,2.1,5.7c1.7,0.7,3.5,0,4.3-0.9L91.7,22z"/>
	<path class="st0" d="M102.4,28c-0.9,0.9-3,2.1-5.7,0.5c-2.4-1.4-3.6-4.7-1.7-7.9c1.5-2.7,5-4.1,8.3-2.2c2.1,1.2,2.2,2.6,2.2,3
		c0,0.4-0.2,0.8-0.6,1.1c-0.5,0.3-1.3,0.1-1.6-0.4c-0.3-0.6-0.1-1.3,0.4-1.6c0.3-0.2,0.6-0.2,0.9-0.1c0.2,0.1,0-0.9-1.5-1.7
		c-0.9-0.5-3.6-1.2-6,2.8c-1.7,2.9-0.7,5,0.7,6c1.5,1,3.4,0.8,4.3,0.2L102.4,28z"/>
	<path class="st0" d="M106,35.6c-2.7-2.6-2.2-6,0-8.3c2.3-2.4,5.6-2.9,8.3-0.3c2.7,2.7,2.2,5.9-0.1,8.3
		C112,37.6,108.7,38.2,106,35.6z M114.1,27.2c-1.4-1.3-3.1-1.4-6.3,1.8s-3,5-1.6,6.3c1.4,1.3,3.1,1.4,6.2-1.9S115.5,28.5,114.1,27.2
		z"/>
	<path class="st0" d="M119.5,55.4l-2-3.7l0.3-0.1c0.7,0.7,1.1,0.5,2.3-0.1l4.7-2.5c1.6-0.9,2.2-1.9,1.4-3.3c-0.6-1.1-2.2-1.4-3-1
		c-0.2,0.1-0.3,0.2-0.5,0.3l-4.8,2.6c-1.2,0.7-1.5,1-1.3,1.9l-0.3,0.1l-2-3.7l0.3-0.1c0.7,0.7,1.1,0.5,2.3-0.1l4.7-2.5
		c1.6-0.9,2.2-1.9,1.4-3.3c-0.6-1.1-2.2-1.3-3-1l-5.4,2.9c-1.2,0.7-1.5,0.9-1.3,1.8l-0.3,0.2l-2-3.7l0.3-0.2
		c0.7,0.7,1.1,0.5,2.2-0.1l6.1-3.3c0.8-0.4,1-0.8,0.8-1.8l0.3-0.1L123,37l-2.3,1.2c1.5-0.2,3.2,0.5,3.9,1.9c0.8,1.5,0.7,2.9-0.8,4.1
		c1.5-0.3,3.3,0.4,4,1.9c1,1.8,0.7,3.3-2,4.8l-4.8,2.6c-1.2,0.7-1.5,1-1.3,1.9L119.5,55.4z"/>
	<path class="st0" d="M122,73.1l-0.6-4.2l0.3,0c0.4,0.9,0.9,0.9,2.1,0.7l5.3-0.7c1.8-0.2,2.7-1.1,2.5-2.6c-0.2-1.2-1.6-2.1-2.5-2
		c-0.2,0-0.4,0.1-0.6,0.1l-5.3,0.7c-1.4,0.2-1.8,0.4-1.9,1.3l-0.3,0l-0.6-4.2l0.3,0c0.4,0.9,0.9,0.9,2.1,0.7l5.3-0.7
		c1.8-0.2,2.7-1.1,2.5-2.6c-0.2-1.2-1.6-2-2.5-2l-6,0.8c-1.4,0.2-1.7,0.4-1.8,1.3l-0.3,0l-0.6-4.2l0.3,0c0.4,0.9,0.8,0.9,2.1,0.7
		l6.8-0.9c0.9-0.1,1.3-0.4,1.4-1.5l0.3,0l1.2,3.3l-2.6,0.4c1.5,0.3,2.8,1.6,3,3.1c0.2,1.7-0.4,3-2.2,3.5c1.5,0.2,2.9,1.6,3.1,3.1
		c0.3,2-0.5,3.4-3.5,3.8l-5.4,0.8c-1.4,0.2-1.8,0.4-1.9,1.3L122,73.1z"/>
	<path class="st0" d="M120.4,79.5c0.6-3.7,3.6-5.2,6.9-4.7c3.3,0.5,5.6,2.9,5,6.7c-0.6,3.8-3.6,5.2-6.9,4.7
		C122.1,85.7,119.7,83.3,120.4,79.5z M131.9,81.5c0.3-1.9-0.6-3.4-5.1-4.1c-4.5-0.7-5.8,0.3-6.1,2.2c-0.3,1.9,0.6,3.3,5.1,4.1
		C130.2,84.4,131.6,83.3,131.9,81.5z"/>
	<path class="st0" d="M114.3,98l0.7-2.7c0.2-0.7,0.7-0.5,0.7-0.5l1.3,0.6c-0.8-1.2-0.7-3-0.2-4.1c1.4-3,4.6-3.7,7.8-2.2
		c3.5,1.6,4.3,4.7,2.9,7.8c-0.5,1.1-1.3,1.9-2.1,2.4l4.7,2.2c0.8,0.4,1.2,0.3,1.8-0.6l0.3,0.1l-0.8,3.4l-15-6.8
		c-1.1-0.5-1.4-0.3-1.8,0.6L114.3,98z M122.6,98c2.2,1,3.9,0.1,4.6-1.2c0.7-1.5,0.3-3.5-3.3-5.2c-3.6-1.6-5.8-1.2-6.7,0.7
		c-0.7,1.5-0.1,3.1,1.5,3.9L122.6,98z"/>
	<path class="st0" d="M108.2,107.7l-0.3,0.2c-0.5-0.6-0.7-1.8,0.1-2.9c0,0,1.2-1.6,3-0.3c-0.7-1-0.5-2.7,0.6-4.1
		c0,0,1.8-2.2,3.8-0.6c2,1.6,1.1,3.6-0.8,7.6l1.1,0.9c2,1.6,4,1.5,4.5-0.6c0.2-1.1,0-1.5-0.2-1.4c-0.2,0.2-0.5,0.3-0.8,0.3
		c-0.6,0-1.1-0.6-1.1-1.2c0-0.6,0.5-1.1,1.2-1.1c0.5,0,0.9,0.3,1,0.7c0.2,0.4,0.5,1.2,0.2,2.7c-0.2,1.2-1.1,2.1-1.1,2.1
		c-1.7,2.1-3.8,1.5-6.1-0.4l-3.3-2.7c0,0-1.2-1-1.9-0.1C108.1,106.7,107.8,107.2,108.2,107.7z M114.3,102c-0.6-0.5-1.8-0.9-2.8,0.3
		c-0.8,1-0.5,2.1-0.2,2.7c0,0,2.9,2.3,2.9,2.3C115.6,104.7,115.5,103,114.3,102z"/>
	<path class="st0" d="M102,113.2c-0.4-1.1-0.3-2.6,0.8-3.5c1.4-1.2,2.7-1.3,4.7,1l4.9,5.8l1-0.8l0.2,0.2l-1,0.9l2.3,2.7l-1.4,1.7
		l-2.5-3l-2.3,1.9l-0.2-0.3l2.2-1.9l-4.9-5.8c-1.3-1.5-2.3-1.6-3.2-0.8c-0.6,0.5-0.7,1.3-0.5,1.8L102,113.2z"/>
	<path class="st0" d="M92.9,119.8c-0.3-1.2-0.1-3.6,2.5-5c2.7-1.5,5.9-0.3,7.5,2.6c1.8,3.2,0.9,6.5-1.8,8c-2.5,1.4-5.2,0.8-7.1-2.7
		l7-3.9c-1.7-2.9-3.7-3.3-5.5-2.6c-1.4,0.6-2.5,2.3-2.3,3.6L92.9,119.8z M96.1,121.9c1.8,3.2,3.9,3.7,5,3.1c1.2-0.7,1.7-3.2,0.1-5.9
		L96.1,121.9z"/>
	<path class="st0" d="M61.9,121l5.7,0.1l0,0.3c-1.3,0-1.1,1.4-0.6,2.8l0.8,2.2l6.5,0.2c0.7-2,1.9-5.1-1.6-5l0-0.3l5.6,0.1l0,0.3
		c-1,0-1.6,0.1-3.9,5.8L70,138.8l-0.3,0c-2.9-7.4-5.8-15.4-5.8-15.4c-0.8-2-1.3-2-2-2.1L61.9,121z M67.9,126.8l3.1,8.4l3.2-8.2
		L67.9,126.8z"/>
	<path class="st0" d="M50.5,120.4c0.6-1.1,2.5-2.7,5.4-1.8c2.7,0.8,4.5,3.8,3.4,7.3c-0.9,2.9-3.9,5.1-7.6,3.9
		c-2.3-0.7-2.7-2-2.8-2.5c-0.1-0.4,0-0.9,0.3-1.2c0.5-0.4,1.2-0.4,1.7,0.1c0.5,0.5,0.4,1.2-0.1,1.6c-0.3,0.2-0.6,0.3-0.8,0.3
		c-0.2,0,0.2,0.9,1.8,1.4c1,0.3,3.8,0.4,5.2-4.1c1-3.2-0.4-5-2-5.7c-1.7-0.7-3.5,0-4.3,0.8L50.5,120.4z"/>
	<path class="st0" d="M39.8,114.3c0.9-0.9,3-2,5.7-0.5c2.4,1.4,3.5,4.8,1.6,7.9c-1.6,2.6-5,4-8.3,2.1c-2.1-1.3-2.2-2.6-2.2-3.1
		c0-0.4,0.2-0.8,0.6-1.1c0.5-0.3,1.3-0.1,1.6,0.5c0.3,0.6,0.1,1.3-0.4,1.6c-0.3,0.2-0.6,0.2-0.9,0.1c-0.2-0.1,0,0.9,1.4,1.7
		c0.9,0.5,3.6,1.3,6-2.8c1.7-2.9,0.8-5-0.7-6.1c-1.5-1.1-3.4-0.8-4.3-0.2L39.8,114.3z"/>
	<path class="st0" d="M36.3,106.6c2.7,2.7,2.2,6-0.1,8.3c-2.3,2.3-5.6,2.9-8.3,0.2c-2.7-2.7-2.2-6,0.1-8.3
		C30.3,104.5,33.5,103.9,36.3,106.6z M28.1,114.9c1.4,1.4,3.1,1.4,6.3-1.8c3.2-3.2,3.1-4.9,1.7-6.3c-1.4-1.3-3.1-1.4-6.2,1.8
		C26.6,111.9,26.7,113.6,28.1,114.9z"/>
	<path class="st0" d="M22.8,86.7l2,3.7l-0.3,0.1c-0.7-0.7-1.1-0.5-2.3,0.1l-4.8,2.5c-1.6,0.8-2.2,1.9-1.4,3.3c0.6,1.1,2.2,1.4,3,1
		c0.2-0.1,0.3-0.2,0.5-0.3l4.8-2.5c1.2-0.6,1.5-1,1.3-1.9l0.3-0.1l2,3.7l-0.3,0.1c-0.7-0.7-1.1-0.5-2.3,0.1l-4.8,2.5
		c-1.6,0.8-2.2,1.9-1.4,3.3c0.6,1.1,2.2,1.3,3,1.1l5.4-2.8c1.2-0.6,1.5-0.9,1.3-1.8l0.3-0.2l2,3.7l-0.3,0.2
		c-0.7-0.7-1.1-0.5-2.2,0.1l-6.1,3.2c-0.8,0.4-1.1,0.8-0.8,1.8l-0.3,0.1l-2.3-2.7l2.3-1.2c-1.5,0.2-3.2-0.5-3.9-1.9
		c-0.8-1.5-0.6-2.9,0.9-4.1c-1.5,0.3-3.3-0.5-4-1.9c-1-1.8-0.7-3.4,2-4.8l4.8-2.5c1.2-0.6,1.5-1,1.3-1.9L22.8,86.7z"/>
	<path class="st0" d="M20.5,68.9l0.5,4.2l-0.3,0c-0.4-0.9-0.9-0.9-2.1-0.7l-5.3,0.7c-1.8,0.2-2.7,1-2.5,2.6c0.2,1.2,1.6,2.1,2.5,2
		c0.2,0,0.4,0,0.6-0.1l5.4-0.7c1.4-0.2,1.8-0.4,1.9-1.3l0.3,0l0.5,4.2l-0.3,0c-0.4-0.9-0.9-0.9-2.1-0.7l-5.3,0.7
		c-1.8,0.2-2.7,1-2.5,2.6c0.2,1.2,1.6,2,2.4,2.1l6-0.8c1.4-0.2,1.7-0.4,1.8-1.3l0.3,0l0.5,4.2l-0.3,0c-0.4-0.9-0.8-0.9-2.1-0.7
		l-6.8,0.9c-0.9,0.1-1.3,0.4-1.4,1.4l-0.3,0l-1.2-3.3l2.6-0.3c-1.5-0.4-2.8-1.6-3-3.2c-0.2-1.7,0.4-3,2.2-3.5
		c-1.5-0.3-2.9-1.6-3.1-3.2c-0.3-2,0.5-3.4,3.5-3.8l5.4-0.7c1.4-0.2,1.8-0.4,1.9-1.3L20.5,68.9z"/>
	<path class="st0" d="M22.2,62.5c-0.7,3.7-3.7,5.2-6.9,4.6c-3.3-0.6-5.6-3-4.9-6.7c0.7-3.8,3.7-5.2,6.9-4.6
		C20.6,56.4,22.9,58.8,22.2,62.5z M10.7,60.5c-0.3,1.9,0.6,3.4,5,4.2c4.5,0.8,5.8-0.3,6.1-2.2c0.3-1.9-0.6-3.3-5-4.1
		C12.4,57.6,11.1,58.6,10.7,60.5z"/>
	<path class="st0" d="M28.4,44.2l-0.7,2.7c-0.2,0.7-0.7,0.4-0.7,0.4l-1.2-0.6c0.8,1.2,0.6,3,0.1,4.1c-1.4,3-4.6,3.7-7.8,2.2
		c-3.5-1.6-4.2-4.8-2.8-7.8c0.5-1.1,1.3-1.9,2.1-2.4l-4.7-2.2c-0.8-0.4-1.2-0.3-1.8,0.6L10.6,41l0.8-3.4l15,7
		c1.1,0.5,1.4,0.3,1.8-0.6L28.4,44.2z M20.1,44.1c-2.2-1-3.9-0.2-4.6,1.2c-0.7,1.5-0.3,3.5,3.3,5.2c3.6,1.7,5.8,1.3,6.7-0.7
		c0.7-1.5,0.1-3.1-1.4-3.9L20.1,44.1z"/>
	<path class="st0" d="M34.7,34.5l0.3-0.2c0.5,0.6,0.7,1.8-0.1,2.9c0,0-1.2,1.6-3,0.3c0.7,1,0.5,2.7-0.6,4.1c0,0-1.8,2.2-3.8,0.6
		c-1.9-1.6-1-3.6,0.8-7.6l-1.1-0.9c-2-1.6-3.9-1.5-4.5,0.6c-0.2,1.1,0,1.5,0.1,1.4c0.2-0.2,0.5-0.3,0.8-0.3c0.6,0,1.1,0.6,1.1,1.2
		c0,0.6-0.5,1.1-1.2,1.1c-0.5,0-0.9-0.3-1-0.7c-0.2-0.4-0.5-1.2-0.2-2.7c0.3-1.2,1.1-2.1,1.1-2.1c1.7-2.1,3.8-1.4,6.1,0.5l3.3,2.7
		c0,0,1.2,1,1.9,0.1C34.7,35.5,35.1,35,34.7,34.5z M28.4,40.1c0.6,0.5,1.8,0.9,2.8-0.3c0.8-1,0.5-2.1,0.2-2.7c0,0-2.9-2.3-2.9-2.3
		C27.2,37.5,27.3,39.2,28.4,40.1z"/>
	<path class="st0" d="M40.8,29c0.4,1.1,0.2,2.6-0.9,3.5c-1.4,1.2-2.8,1.3-4.7-1.1l-4.9-5.9l-1,0.8l-0.2-0.2l1-0.8l-2.3-2.7l1.4-1.7
		l2.5,3l2.3-1.9l0.2,0.3l-2.2,1.9l4.8,5.8c1.3,1.5,2.3,1.6,3.2,0.8c0.6-0.5,0.7-1.3,0.5-1.8L40.8,29z"/>
	<path class="st0" d="M50.1,22.5c0.3,1.2,0.1,3.6-2.5,5c-2.7,1.5-5.9,0.3-7.5-2.6c-1.8-3.2-0.9-6.5,1.9-8c2.5-1.4,5.2-0.7,7.1,2.7
		l-7,3.8c1.7,2.9,3.7,3.4,5.5,2.6c1.4-0.6,2.5-2.2,2.3-3.5L50.1,22.5z M46.9,20.4c-1.7-3.2-3.9-3.7-4.9-3.1
		c-1.3,0.7-1.7,3.2-0.2,5.9L46.9,20.4z"/>
</g>
</svg>
