<?xml version="1.0" encoding="utf-8"?>
<svg version="1.1" id="" xmlns="http://www.w3.org/2000/svg" xmlns:xlink="http://www.w3.org/1999/xlink" x="0px"
	 y="0px" viewBox="0 0 144 143.9" style="enable-background:new 0 0 144 143.9;" xml:space="preserve">
<style type="text/css">
	.st0{fill:#7c3e3e;}
</style>
<g>
	<path class="st0" d="M123.3,93.4l-3.8-0.7c-0.7-2.1-0.6-3.6,0.1-6.2c1.4-5,5.6-7.5,11-6c5.4,1.5,7.8,5.8,6.4,10.8
		c-0.7,2.5-1.4,4.2-3.1,5.4l-3.7-1.3l0.1-0.3c4.2,0.4,5.8-1.9,6.3-3.9c0.7-2.5,0.3-5.6-6.9-7.6c-7.4-2-9.2,0.5-9.8,3
		c-0.5,2-0.1,5.2,3.5,6.6L123.3,93.4z"/>
	<path class="st0" d="M110.1,105.3l1.2-2.6c0.2-0.6,0.6-0.3,0.6-0.3l1.8,1.2c-0.8-1.1-0.9-3.1,0-4.5c1-1.5,2.6-2.6,5.1-0.8l4.6,3.2
		c1.3,0.9,1.4,1,2.3-0.1l0.2,0.2l-1.6,3.2l-6.7-4.6c-1.6-1.1-2.8-0.6-3.6,0.6c-0.7,1-0.5,2.3,0.1,3.2l5.2,3.6c1.3,0.9,1.4,1,2.1,0
		l0.2,0.2l-1.5,3l-8-5.5c-1-0.7-1.2-0.6-1.9,0.2L110.1,105.3z"/>
	<path class="st0" d="M103,111.2l3.2-2.7l0.2,0.2c-0.5,0.8-0.3,1.2,0.6,2.2l4.5,5.2c0.6,0.7,1,0.8,1.9,0.3l0.2,0.2l-2.1,2.8
		l-6.2-7.2c-0.9-1.1-1.3-1.3-2.1-0.8L103,111.2z M115.7,120.3c0.5,0.5,0.4,1.3-0.1,1.8c-0.5,0.5-1.3,0.4-1.8-0.1
		c-0.5-0.5-0.4-1.3,0.1-1.8C114.4,119.7,115.2,119.8,115.7,120.3z"/>
	<path class="st0" d="M94.9,116.2c2.7-1.4,4.3-1.2,4.3-1.2l1.6,3l-0.3,0.2c-0.9-1.4-2.6-3.2-5.5-1.7c-2.3,1.2-0.8,3.4,1.4,3.6
		l2.9,0.2c2.9,0.3,4.1,1.4,4,3.4c0,0,0,1.6-2.3,2.8c-2.5,1.3-4,1.2-4,1.2l-1.4-2.7l0.3-0.1c0.8,1.2,2.4,2.7,5,1.4
		c2.1-1.1,1.2-3.3-1.4-3.5l-3-0.2c-2.6-0.2-4.2-1.6-4-3.7C92.6,118.8,92.8,117.3,94.9,116.2z"/>
	<path class="st0" d="M82.3,121l4.1-1l0.1,0.3c-0.9,0.5-0.8,0.9-0.5,2.2l1.7,6.7c0.2,0.8,0.5,1.1,1.6,1.1l0.1,0.3l-3.1,1.5l-2.3-9.2
		c-0.3-1.4-0.6-1.7-1.5-1.7L82.3,121z M89.5,134.7c0.2,0.7-0.2,1.4-0.9,1.5c-0.7,0.2-1.4-0.2-1.5-0.9c-0.2-0.7,0.2-1.4,0.9-1.6
		C88.7,133.6,89.3,134.1,89.5,134.7z"/>
	<path class="st0" d="M66,121.9l4.2,0.1l0,0.3c-1,0.3-1,0.7-1,2l-0.1,5.4c0,1.7,0.9,2.8,2.5,2.9c1.3,0,2.4-1.2,2.6-2.1l0.1-6.1
		c0-1.4-0.1-1.8-1-2l0-0.3l4.2,0.1l0,0.3c-1,0.3-1,0.7-1,2l-0.1,7c0,0.9,0.2,1.2,1.2,1.5l0,0.3l-3.5,0.7l0-2.6
		c-0.5,1.4-2.3,2.6-3.9,2.6c-2,0-3.4-1-3.4-4.1l0.1-5.4c0-1.4-0.1-1.8-1-2L66,121.9z"/>
	<path class="st0" d="M52.2,121.4c0.6-1,2.5-2.6,5.3-1.7c3,0.9,4.4,4,3.4,7.2c-1.1,3.5-4,5.2-7,4.3c-2.8-0.8-4.2-3.2-3-6.9l7.7,2.3
		c0.9-3.3-0.2-5-2-5.7c-1.4-0.6-3.4-0.2-4.1,0.8L52.2,121.4z M52.9,125.1c-1,3.5,0.1,5.4,1.2,5.7c1.4,0.4,3.5-1,4.4-4L52.9,125.1z"
		/>
	<path class="st0" d="M29.1,107.4l2.4-3c2.2,0.4,3.5,1.2,5.5,3c3.8,3.5,4,8.5,0.2,12.5c-3.8,4.1-8.7,4.2-12.5,0.6
		c-1.9-1.8-3.1-3.2-3.4-5.2l2.9-2.6l0.2,0.2c-2.3,3.5-1,6,0.5,7.4c1.9,1.8,4.8,2.9,9.9-2.6c5.3-5.6,3.8-8.4,2-10.1
		c-1.5-1.4-4.6-2.5-7.4,0L29.1,107.4z"/>
	<path class="st0" d="M24.7,90.2l1.8,2.3c0.4,0.5-0.1,0.7-0.1,0.7l-1.9,1c1.4-0.2,3.2,0.6,4,2.1c0.8,1.6,1.1,3.5-1.7,4.9l-5,2.6
		c-1.4,0.8-1.5,0.8-1,2.1l-0.3,0.1l-2.1-2.9l7.2-3.8c1.7-0.9,1.8-2.2,1.1-3.5c-0.6-1.1-1.8-1.5-2.9-1.4l-5.6,3
		c-1.3,0.7-1.5,0.8-1,1.9l-0.3,0.1l-2-2.7l8.6-4.5c1.1-0.6,1.1-0.8,0.7-1.8L24.7,90.2z"/>
	<path class="st0" d="M8.8,88.1c-0.7,0.2-1.4-0.2-1.5-1c-0.2-0.7,0.2-1.4,1-1.5c0.7-0.2,1.4,0.3,1.5,1C9.9,87.3,9.5,88,8.8,88.1z
		 M22.8,81.2l0.9,4.1l-0.3,0.1c-0.5-0.9-0.9-0.8-2.2-0.5l-6.8,1.6c-0.9,0.2-1.1,0.5-1.2,1.6L13,88l-1.5-3.2l9.2-2.1
		c1.4-0.3,1.7-0.5,1.7-1.4L22.8,81.2z"/>
	<path class="st0" d="M22.2,71.6c0,3-0.9,4.4-0.9,4.4l-3.4,0.1l0-0.3c1.6-0.2,4.1-0.9,4-4.1c0-2.6-2.7-2.3-3.9-0.4l-1.5,2.5
		c-1.6,2.4-3.1,3-4.8,2c0,0-1.4-0.7-1.5-3.3c0-2.9,0.7-4.1,0.7-4.1l3-0.1l0,0.3c-1.5,0.2-3.5,0.9-3.5,3.8c0,2.4,2.4,2.5,3.7,0.3
		l1.5-2.6c1.4-2.3,3.4-3,5.1-1.9C20.9,68.5,22.1,69.3,22.2,71.6z"/>
	<path class="st0" d="M8.3,58.3c-0.7-0.2-1.1-0.8-0.9-1.5c0.2-0.7,0.8-1.1,1.5-0.9c0.7,0.2,1.1,0.9,0.9,1.5
		C9.6,58.1,8.9,58.5,8.3,58.3z M23.8,58.3l-1,4.1l-0.3-0.1c0-1-0.5-1.1-1.7-1.4l-6.7-1.6c-0.9-0.2-1.2-0.1-1.7,0.9L12,60.1l0.1-3.5
		l9.2,2.2c1.4,0.3,1.8,0.3,2.2-0.5L23.8,58.3z"/>
	<path class="st0" d="M30.5,43.4l-2,3.7L28.3,47c0.2-1-0.2-1.2-1.3-1.8l-4.7-2.5c-1.5-0.8-2.9-0.5-3.7,0.9c-0.6,1.1,0,2.7,0.7,3.3
		l5.4,2.9c1.2,0.6,1.6,0.7,2.2,0l0.3,0.2l-2,3.7l-0.3-0.2c0.2-1-0.2-1.2-1.3-1.8l-6.1-3.3c-0.8-0.4-1.2-0.4-1.9,0.4l-0.3-0.1l1-3.4
		l2.3,1.2c-1-1.1-1.3-3.2-0.5-4.6c1-1.8,2.5-2.6,5.2-1.2l4.8,2.6c1.2,0.6,1.7,0.7,2.3,0.1L30.5,43.4z"/>
	<path class="st0" d="M37.5,31.5c0.6,1,1.1,3.4-1,5.5c-2.2,2.2-5.6,2-8-0.3c-2.6-2.6-2.7-6-0.5-8.2c2-2.1,4.8-2.2,7.6,0.6L30,34.8
		c2.5,2.3,4.5,2.2,6,0.9c1.2-1,1.7-2.9,1.2-4.1L37.5,31.5z M33.8,30.4c-2.6-2.6-4.8-2.4-5.6-1.6c-1,1-0.7,3.5,1.5,5.7L33.8,30.4z"/>
	<path class="st0" d="M62.5,17.2l1.4,3.6c-1.4,1.7-2.8,2.5-5.3,3.2c-4.9,1.5-9.3-0.8-10.9-6.1c-1.6-5.4,0.7-9.7,5.7-11.2
		c2.5-0.8,4.3-1.1,6.2-0.3l0.8,3.8l-0.3,0.1c-1.9-3.7-4.7-3.9-6.6-3.3C51,7.8,48.5,9.8,50.8,17c2.2,7.3,5.4,7.5,7.8,6.7
		c1.9-0.6,4.5-2.7,3.7-6.4L62.5,17.2z"/>
	<path class="st0" d="M79.7,21.9l-2.9,0.4c-0.6,0.1-0.6-0.4-0.6-0.4l0.1-2.1c-0.5,1.3-2.2,2.5-3.8,2.4c-1.8-0.1-3.6-0.8-3.4-3.9
		l0.2-5.6c0.1-1.6,0.1-1.7-1.3-1.9l0-0.3l3.6-0.4l-0.3,8.1c-0.1,1.9,1,2.7,2.5,2.7c1.2,0,2.2-0.8,2.7-1.8l0.2-6.3
		c0-1.5,0.1-1.7-1.1-1.8l0-0.3l3.4-0.4l-0.3,9.7c0,1.2,0.2,1.4,1.2,1.5L79.7,21.9z"/>
	<path class="st0" d="M88.4,24.7l-4-1.2l0.1-0.3c1,0,1.2-0.4,1.5-1.6l2-6.6c0.3-0.8,0.2-1.2-0.8-1.8l0.1-0.3l3.5,0.3l-2.7,9
		c-0.4,1.3-0.4,1.7,0.4,2.2L88.4,24.7z M89.3,9.2c0.2-0.7,0.9-1.1,1.6-0.9c0.7,0.2,1.1,0.9,0.9,1.6c-0.2,0.7-0.9,1.1-1.6,0.9
		C89.5,10.6,89.1,9.9,89.3,9.2z"/>
	<path class="st0" d="M97,29c-2.6-1.5-3.3-3-3.3-3l1.7-2.9l0.3,0.2c-0.7,1.5-1.3,3.9,1.5,5.5c2.3,1.3,3.3-1.1,2.3-3.2L98,22.9
		c-1.3-2.6-1-4.2,0.7-5.2c0,0,1.4-0.9,3.6,0.4c2.5,1.4,3.1,2.7,3.1,2.7l-1.5,2.6l-0.3-0.1c0.6-1.4,1-3.5-1.5-4.9
		c-2.1-1.2-3.4,0.8-2.2,3l1.4,2.6c1.3,2.3,0.9,4.5-1,5.3C100.4,29.5,99,30.1,97,29z"/>
	<path class="st0" d="M107.8,37l-3.1-2.9l0.2-0.2c0.9,0.5,1.2,0.2,2.1-0.8l4.7-5c0.6-0.6,0.7-1,0.1-1.9l0.2-0.2l3,1.8l-6.5,6.9
		c-1,1-1.1,1.4-0.6,2.2L107.8,37z M115.5,23.5c0.5-0.5,1.3-0.6,1.8-0.1c0.5,0.5,0.6,1.3,0.1,1.8c-0.5,0.5-1.3,0.5-1.8,0.1
		C115,24.8,115,24.1,115.5,23.5z"/>
	<path class="st0" d="M117.4,50.3l-2.2-3.6l0.3-0.2c0.7,0.7,1.2,0.4,2.2-0.2l4.6-2.9c1.4-0.9,1.9-2.3,1-3.7c-0.7-1.1-2.3-1.3-3.2-1
		l-5.1,3.2c-1.2,0.7-1.4,1-1.1,1.9l-0.3,0.2l-2.2-3.6l0.3-0.2c0.7,0.7,1.1,0.5,2.2-0.2l5.9-3.7c0.7-0.5,0.9-0.8,0.6-1.8l0.3-0.2
		l2.4,2.5l-2.2,1.4c1.5-0.3,3.4,0.5,4.3,1.8c1.1,1.7,1,3.4-1.6,5l-4.6,2.9c-1.2,0.7-1.4,1.1-1.2,1.9L117.4,50.3z"/>
	<path class="st0" d="M124.2,62.2c-1.2,0.1-3.5-0.7-4.3-3.6c-0.8-3,1.1-5.9,4.2-6.7c3.6-1,6.5,0.6,7.3,3.6c0.8,2.8-0.5,5.2-4.2,6.3
		l-2.2-7.7c-3.2,1-4.1,2.8-3.8,4.8c0.3,1.5,1.6,2.9,2.9,3L124.2,62.2z M127,59.6c3.5-1,4.5-2.9,4.2-4.1c-0.4-1.4-2.7-2.4-5.8-1.5
		L127,59.6z"/>
</g>
</svg>
