<?xml version="1.0" encoding="utf-8"?>
<svg version="1.1" id="" xmlns="http://www.w3.org/2000/svg" xmlns:xlink="http://www.w3.org/1999/xlink" x="0px"
	 y="0px" viewBox="0 0 142.5 142.5" style="enable-background:new 0 0 142.5 142.5;" xml:space="preserve">
<style type="text/css">
	.st0{fill:#3e7c75;}
</style>
<g>
	<path class="st0" d="M80.2,21.4l-5.7-0.1l0-0.3c1.4,0,1.1-1.4,0.6-2.8L74.2,16l-6.5-0.1c-0.7,2-1.9,5.1,1.6,5l0,0.3l-5.6-0.1l0-0.3
		c1,0,1.6-0.1,3.8-5.8L72,3.7l0.3,0c2.9,7.4,5.9,15.3,5.9,15.3c0.8,2,1.3,2,2,2.1L80.2,21.4z M74.1,15.6L71,7.3l-3.2,8.2L74.1,15.6z
		"/>
	<path class="st0" d="M94.8,23.4c-0.7,1.1-2.6,2.5-5.5,1.5c-2.6-1-4.3-4.1-3-7.5c1.1-2.9,4.2-4.8,7.8-3.5c2.3,0.9,2.6,2.2,2.7,2.6
		c0.1,0.4-0.1,0.9-0.4,1.2c-0.5,0.4-1.3,0.3-1.6-0.2c-0.4-0.5-0.3-1.2,0.2-1.6c0.3-0.2,0.6-0.3,0.8-0.2c0.2,0-0.2-0.9-1.7-1.5
		c-0.9-0.4-3.8-0.6-5.4,3.8c-1.2,3.1,0.1,5.1,1.7,5.8c1.7,0.8,3.5,0.2,4.3-0.6L94.8,23.4z"/>
	<path class="st0" d="M104.3,31c-0.9,0.7-2.4,0.9-3.6,0.1c-1.5-1.1-1.9-2.3-0.2-4.8l4.4-6.2l-1-0.7L104,19l1.1,0.8l2.1-2.9l2,1
		l-2.3,3.2l2.4,1.7l-0.2,0.2l-2.4-1.7l-4.4,6.2c-1.2,1.6-1,2.6,0,3.3c0.6,0.4,1.4,0.3,1.9,0L104.3,31z"/>
	<path class="st0" d="M109.3,38.7l-2.9-3.1l0.2-0.2c0.8,0.5,1.2,0.2,2.1-0.6l5.1-4.7c0.6-0.6,0.8-1,0.2-1.9l0.2-0.2l2.9,2l-6.9,6.4
		c-1,1-1.2,1.3-0.8,2.1L109.3,38.7z M117.9,25.7c0.5-0.5,1.3-0.5,1.8,0.1c0.5,0.5,0.5,1.3-0.1,1.8c-0.5,0.5-1.3,0.4-1.8-0.1
		C117.3,27,117.4,26.2,117.9,25.7z"/>
	<path class="st0" d="M128.3,47.3l-0.3,0.2c-0.5-0.8-0.8-1.5-4.3-1.1l-8.7,1.3l-0.1-0.2c6.3-8.5,6.7-9.1,6.7-9.1
		c0.8-1.1,0.4-1.8,0.3-2.1l0.3-0.2l2.5,4.6l-0.3,0.2c-0.8-1.5-1.9,0.2-1.9,0.2l-4.4,6l5.5-0.8c0,0,3.6-0.4,2.2-2.8l0.3-0.2
		L128.3,47.3z"/>
	<path class="st0" d="M120.2,60.8l-1-4.1l0.3-0.1c0.5,0.9,1,0.8,2.2,0.5l6.7-1.7c0.8-0.2,1.1-0.5,1.1-1.6l0.3-0.1l1.6,3.1l-9.2,2.4
		c-1.4,0.3-1.7,0.6-1.7,1.5L120.2,60.8z M134,53.5c0.7-0.2,1.4,0.2,1.6,0.9c0.2,0.7-0.2,1.4-0.9,1.6c-0.7,0.2-1.4-0.2-1.6-0.9
		C132.9,54.4,133.3,53.7,134,53.5z"/>
	<path class="st0" d="M132.9,77.2l-0.3,0c0-0.9-0.3-1.7-4.1-3.1l-10.6-3.7c-1.5-0.5-2-1.1-2.3-1.5c-0.3-0.3-0.4-1-0.2-1.5
		c0.3-0.7,1.1-1,1.7-0.7c0.7,0.3,1,1.1,0.7,1.7c-0.1,0.4-0.5,0.6-0.8,0.7c-0.3,0.1,0,0.6,0.9,1l3.2,1.1c6.5-3.1,10-4.8,10-4.8
		c1.1-0.5,1.2-1.4,1.2-1.8l0.3,0l0.1,5.2l-0.3,0c0-1.6-1.8-0.7-1.8-0.7l-6.6,3.2l4.6,1.6c0,0,4,1.5,3.9-1.4l0.3,0L132.9,77.2z"/>
	<path class="st0" d="M109.8,104.2l3-4.9l0.3,0.2c-0.7,1.2,0.6,1.7,2.1,1.9l2.3,0.4l3.4-5.5c-1.4-1.6-3.4-4.2-5.2-1.1l-0.3-0.2
		l2.9-4.8l0.3,0.2c-0.5,0.8-0.7,1.4,3.1,6.3l7.5,9.5l-0.1,0.2c-7.9-1.2-16.2-2.7-16.2-2.7c-2.1-0.3-2.4,0.1-2.8,0.7L109.8,104.2z
		 M117.8,101.9l8.8,1.5l-5.5-6.9L117.8,101.9z"/>
	<path class="st0" d="M100.6,115.8c-0.6-1.1-0.9-3.5,1.5-5.5c2.2-1.8,5.7-1.6,8,1.2c1.9,2.4,2,6.1-0.9,8.5c-1.9,1.5-3.2,1.1-3.6,1
		c-0.4-0.1-0.7-0.5-0.8-0.9c-0.1-0.6,0.4-1.3,1-1.3c0.7-0.1,1.2,0.3,1.3,1c0.1,0.3,0,0.7-0.2,0.8c-0.1,0.2,0.8,0.3,2.1-0.8
		c0.8-0.6,2.4-2.9-0.5-6.6c-2.1-2.6-4.4-2.5-5.9-1.5c-1.5,1-2,2.9-1.7,4L100.6,115.8z"/>
	<path class="st0" d="M89.3,120.1c-0.1-1.1,0.5-2.6,1.8-3.2c1.7-0.8,3-0.5,4.2,2.3l3.1,6.9l1.2-0.5l0.2,0.3l-1.2,0.5l1.5,3.2
		l-1.8,1.2l-1.6-3.6l-2.7,1.2l-0.1-0.3l2.6-1.2l-3.1-6.9c-0.8-1.8-1.8-2.1-2.8-1.7c-0.7,0.3-1,1-1,1.6L89.3,120.1z"/>
	<path class="st0" d="M80.1,120.5l4.1-0.9l0.1,0.3c-0.9,0.5-0.8,0.9-0.5,2.2l1.5,6.8c0.2,0.9,0.5,1.2,1.5,1.2l0.1,0.3l-3.2,1.5
		l-2.1-9.2c-0.3-1.4-0.5-1.7-1.4-1.7L80.1,120.5z M86.9,134.5c0.2,0.7-0.3,1.4-1,1.5c-0.7,0.2-1.4-0.3-1.5-1c-0.2-0.7,0.3-1.4,1-1.5
		C86.1,133.4,86.8,133.8,86.9,134.5z"/>
	<path class="st0" d="M63.1,132.6l0-0.3c0.9,0,1.7,0,3.1-3.1l3.3-8.2l0.2,0c4.1,9.7,4.5,10.3,4.5,10.3c0.6,1.3,1.3,1.3,1.7,1.3
		l0,0.3l-5.2-0.1l0-0.3c1.7,0,0.8-1.7,0.8-1.7l-2.9-6.9l-2.1,5.1c0,0-1.4,3.3,1.3,3.4l0,0.3L63.1,132.6z"/>
	<path class="st0" d="M54.8,134.3c-0.2,0.7-0.9,1.1-1.6,0.9c-0.7-0.2-1.1-0.9-0.9-1.6c0.2-0.7,0.9-1.1,1.6-0.9
		C54.7,132.9,55,133.6,54.8,134.3z M55.5,118.8l4,1.2l-0.1,0.3c-1,0-1.2,0.4-1.5,1.6l-1.9,6.7c-0.2,0.8-0.1,1.2,0.8,1.8l-0.1,0.3
		l-3.5-0.2l2.6-9.1c0.4-1.3,0.4-1.7-0.4-2.2L55.5,118.8z"/>
	<path class="st0" d="M34.8,121.2l0.2-0.3c0.8,0.4,1.6,0.7,4.8-1.8l8.7-7.1c1.2-1,2-1.1,2.5-1.2c0.4-0.1,1.1,0.2,1.4,0.6
		c0.4,0.6,0.3,1.4-0.3,1.9c-0.6,0.4-1.4,0.3-1.9-0.3c-0.2-0.3-0.3-0.7-0.2-1c0.1-0.4-0.5-0.3-1.3,0.3l-2.6,2.2
		c-0.8,7.2-1.1,11.1-1.1,11.1c-0.2,1.2,0.6,1.8,0.9,2l-0.2,0.3l-4.5-2.6l0.2-0.3c1.4,0.8,1.6-1.2,1.6-1.2l0.7-7.3l-3.7,3.1
		c0,0-3.4,2.6-0.8,4.1l-0.2,0.3L34.8,121.2z"/>
	<path class="st0" d="M23.4,87.8l2.7,5L25.8,93c-0.6-1.2-1.8-0.3-2.7,0.9l-1.5,1.8l3.1,5.7c2.1-0.4,5.3-0.9,3.6-3.9l0.3-0.2l2.7,4.9
		l-0.3,0.2c-0.5-0.8-0.9-1.3-7-0.5l-12,1.7l-0.1-0.2c5-6.2,10.5-12.7,10.5-12.7c1.4-1.7,1.1-2.1,0.8-2.8L23.4,87.8z M21.3,95.9
		l-5.7,6.8l8.7-1.3L21.3,95.9z"/>
	<path class="st0" d="M18,74.1c1.3,0.1,3.5,1,4,4.1c0.4,2.8-1.5,5.7-5.1,6.3c-3,0.5-6.3-1.3-6.9-5.1c-0.4-2.4,0.6-3.3,1-3.6
		c0.3-0.2,0.8-0.4,1.2-0.2c0.6,0.2,0.9,1,0.7,1.5c-0.2,0.6-0.9,0.9-1.5,0.7c-0.3-0.1-0.6-0.4-0.6-0.6c-0.1-0.2-0.7,0.6-0.4,2.2
		c0.1,1,1.3,3.6,5.9,2.9c3.3-0.5,4.4-2.6,4.3-4.3c-0.1-1.8-1.5-3.2-2.6-3.5L18,74.1z"/>
	<path class="st0" d="M20,62.1c1.1,0.5,2,1.7,1.8,3.1c-0.2,1.8-1.1,2.8-4.1,2.5l-7.6-0.8L10,68.2l-0.3,0l0.1-1.3l-3.5-0.4l-0.1-2.2
		l3.9,0.4l0.3-3l0.3,0.1l-0.3,2.9l7.5,0.8c2,0.2,2.7-0.4,2.9-1.6c0.1-0.7-0.4-1.4-0.9-1.6L20,62.1z"/>
	<path class="st0" d="M8.8,52.8c-0.7-0.2-1-0.9-0.8-1.6c0.2-0.7,0.9-1,1.6-0.8c0.7,0.2,1,0.9,0.8,1.6C10.2,52.7,9.4,53,8.8,52.8z
		 M24.3,54L23,58l-0.3-0.1c0-1-0.4-1.2-1.6-1.6l-6.6-2.1c-0.8-0.3-1.2-0.2-1.8,0.7l-0.3-0.1l0.4-3.5l9,2.9c1.3,0.4,1.7,0.4,2.2-0.4
		L24.3,54z"/>
	<path class="st0" d="M22.5,33.1l0.3,0.2c-0.5,0.8-0.9,1.5,1.1,4.3l5.3,7l-0.1,0.2c-10.5-1.4-11.2-1.4-11.2-1.4
		c-1.4-0.1-1.7,0.5-2,0.8L15.7,44l2.8-4.4l0.3,0.2c-0.9,1.4,1,1.6,1,1.6l7.4,1L23.8,38c0,0-2.1-2.9-3.6-0.6l-0.3-0.2L22.5,33.1z"/>
	<path class="st0" d="M25.2,25.2c-0.5-0.5-0.5-1.3,0-1.8c0.5-0.5,1.3-0.5,1.8,0c0.5,0.5,0.5,1.3,0,1.8
		C26.4,25.8,25.7,25.7,25.2,25.2z M38.2,33.6l-3,2.9L35,36.3c0.5-0.9,0.2-1.2-0.7-2.1l-4.8-5c-0.6-0.6-1-0.7-1.9-0.2l-0.2-0.2l2-2.9
		l6.5,6.8c1,1,1.3,1.2,2.1,0.7L38.2,33.6z"/>
	<path class="st0" d="M46.6,14.5l0.1,0.3c-0.8,0.4-1.4,1-0.8,5.1l1.8,11.1c0.3,1.5,0,2.3-0.2,2.8c-0.2,0.4-0.7,0.9-1.2,0.9
		c-0.7,0.1-1.4-0.5-1.4-1.2c0-0.7,0.5-1.4,1.2-1.4c0.4,0,0.7,0.1,1,0.4c0.3,0.3,0.5-0.3,0.4-1.3l-0.6-3.3c-5.8-4.3-9-6.5-9-6.5
		c-1-0.8-1.8-0.4-2.1-0.3l-0.1-0.3l4.5-2.5l0.1,0.3c-1.4,0.8,0.2,2,0.2,2l6,4.3l-0.8-4.8c0,0-0.6-4.2-3.1-2.8l-0.1-0.3L46.6,14.5z"
		/>
</g>
</svg>
